<svg xmlns="http://www.w3.org/2000/svg" xmlns:xlink="http://www.w3.org/1999/xlink" viewBox="0 0 260.28 231.1"><defs><style>.cls-1,.cls-5{fill:none;}.cls-2{isolation:isolate;}.cls-3{clip-path:url(#clip-path);}.cls-4{opacity:0.31;mix-blend-mode:overlay;}.cls-5{stroke-miterlimit:10;stroke:url(#linear-gradient);}.cls-6{fill:#0297f1;}.cls-7{fill:#373435;}.cls-7,.cls-8{fill-rule:evenodd;}.cls-8{fill:#00368e;}</style><clipPath id="clip-path"><rect class="cls-1" x="-828.41" y="-13.2" width="750" height="500"/></clipPath><linearGradient id="linear-gradient" x1="-1085.73" y1="47.24" x2="41.68" y2="47.24" gradientUnits="userSpaceOnUse"><stop offset="0" stop-color="#ed1c24"/><stop offset="0.01" stop-color="#ee2e36"/><stop offset="0.06" stop-color="#f3656a"/><stop offset="0.11" stop-color="#f79498"/><stop offset="0.16" stop-color="#fabbbd"/><stop offset="0.2" stop-color="#fcd9da"/><stop offset="0.25" stop-color="#feeeee"/><stop offset="0.29" stop-color="#fffbfb"/><stop offset="0.34" stop-color="#fff"/><stop offset="0.39" stop-color="#e6e6f2"/><stop offset="0.51" stop-color="#aeb0d5"/><stop offset="0.62" stop-color="#8082bd"/><stop offset="0.73" stop-color="#5d5faa"/><stop offset="0.83" stop-color="#43469d"/><stop offset="0.93" stop-color="#333695"/><stop offset="1" stop-color="#2e3192"/></linearGradient></defs><title>Logo Abfa1-02</title><g class="cls-2"><g id="BACKGROUND"><g class="cls-3"><g class="cls-4"><path class="cls-5" d="M-1085.43-15.67C-1049,11.79-908.61,76.92-683,20.52c246.21-61.55,491.61,49,495.65,50.84l.1,0c2.55,1.21,124.22,58.43,228.83,31.43"/></g></g></g><g id="OBJECTS"><path class="cls-6" d="M162.28,118.82l-.83-.29a51.39,51.39,0,0,1-8.16-3.91,79.16,79.16,0,0,1-13.4,9.16,78.43,78.43,0,0,1-10.64,4.44c1.4.13,2.83.19,4.26.19a47.72,47.72,0,0,0,28.77-9.59Z"/><path class="cls-6" d="M120.68,126.67c7.93-2.37,13.1-4.33,17.34-6.52,4.82-2.5,8.53-5.37,13.79-9.58l1.07-.85,1.2.68a56.93,56.93,0,0,0,8.74,4.3c1,.35,2,.67,3.21,1,.47-.43.93-.87,1.39-1.32a48.16,48.16,0,0,0,8.34-11.22,49.59,49.59,0,0,1-11.65-4.61,37.68,37.68,0,0,1-9.83-7.91,122.46,122.46,0,0,1-25.42,18,93,93,0,0,1-25.63,9,47.86,47.86,0,0,0,17.45,9Z"/><path class="cls-6" d="M181.28,84.58c-9.89-2.31-14.6-5.23-15-19.38-11.46-4.76-24.09,9.13-40.21,20.22-12.52,8.62-25.22,14.46-36.3,14.65a47.93,47.93,0,0,0,9.65,14.08A88.31,88.31,0,0,0,127,105a119.94,119.94,0,0,0,26.11-18.81l1.63-1.51,1.37,1.74a33.28,33.28,0,0,0,10,8.56,46.2,46.2,0,0,0,11.47,4.43,47.41,47.41,0,0,0,3.71-14.82Z"/><path class="cls-7" d="M84,45.59l-.13.24c-.06.11-.13.17-.22.17a1.76,1.76,0,0,1,.67.58.81.81,0,0,1,0,.86,1.25,1.25,0,0,1-1.14.63,3.38,3.38,0,0,1-1.44-.3.25.25,0,0,0-.08.1.33.33,0,0,0,0,.29.37.37,0,0,0,.19.23l1.45.78a2.57,2.57,0,0,1,.44.38,2.37,2.37,0,0,1,.37.44.53.53,0,0,1,0,.49c0,.1-.16.14-.33.11a.89.89,0,0,1-.36-.11q-1.19-.63-2.79-1.35a1.27,1.27,0,0,1-.78-1,1.86,1.86,0,0,1,.25-1.28,2.61,2.61,0,0,1,.17-.28q-.34-.21-.27-.33a3.75,3.75,0,0,1,.58-.34c.41-.22.63-.34.68-.38a2.65,2.65,0,0,0,.72-.69l.15-.29,1.85,1Zm-1,1a.67.67,0,0,0-.6,0c-.49.22-.8.34-.91.38.88.31,1.41.29,1.6-.06a.22.22,0,0,0-.09-.34Zm0-4a3.27,3.27,0,0,0-2.28-.48c-.08,0-.13,0-.14.05s0,.07,0,.15l.6,1.42c0,.07.09.1.15.08a6.61,6.61,0,0,1,1.06-.27.27.27,0,0,1,.19,0c.09.05.08.16,0,.32l-.57.94,1.8,1.08.2-.33a1.91,1.91,0,0,0,.32-1.73A3.19,3.19,0,0,0,83,42.53Zm3.42,1.64s.08,0,.1.06l.16.78a.08.08,0,0,1-.07.1l-.7.21.15.71c0,.06,0,.1-.07.11l-.75.22c-.06,0-.1,0-.12-.08L85,45.55c0-.06,0-.1.07-.12l.71-.21-.16-.7c0-.06,0-.1.08-.12l.76-.23Zm-.21-5.82a2,2,0,0,1,.47,3.13c-.75,1-1.55,1.19-2.38.56a2.6,2.6,0,0,1-.76-.89.32.32,0,0,1,0-.34c.08-.1.2-.11.37-.05a.83.83,0,0,0,.64.06,2.6,2.6,0,0,0,.71-.74c.38-.5.51-.8.39-.89a.36.36,0,0,0-.27,0,7.3,7.3,0,0,0-2,.75l-.78-1.54q-.06-.13,0-.18a.38.38,0,0,1,.11-.08A3.64,3.64,0,0,1,84,37.77a3.1,3.1,0,0,1,2.25.58Zm1.59-2.14c-.94-.78-1.52-1.24-1.72-1.4a11.64,11.64,0,0,0-1.86-1.18q-.12-.06-.15,0s0,.1,0,.23l.24,2.09q3.58,2.11,4.25,2.4c.32.14.51.15.6,0s0-.27-.08-.55a4.16,4.16,0,0,0-.57-.86,5.3,5.3,0,0,0-.71-.75Zm3.34-3.47a2,2,0,0,1,.18,3.16c-.85.93-1.65,1-2.42.34a2.64,2.64,0,0,1-.68-1,.31.31,0,0,1,0-.34c.09-.09.21-.09.37,0a.83.83,0,0,0,.63.11,2.57,2.57,0,0,0,.78-.66c.43-.47.58-.76.48-.86a.41.41,0,0,0-.28-.05,7.52,7.52,0,0,0-2.09.56l-.63-1.61c0-.09,0-.15,0-.18l.11-.07A3.57,3.57,0,0,1,89,32a3.09,3.09,0,0,1,2.19.79Zm6.19-2.85a3.6,3.6,0,0,1,1,2.67.39.39,0,0,1-.15.27l-1.76,1.45c-.2.17-.37.18-.51,0a.25.25,0,0,1,0-.3,12.86,12.86,0,0,0,.63-1.71c.29-.92.37-1.47.22-1.65s-.66-.23-1.63-.26l-.37-1.67c0-.1,0-.14.12-.14a3,3,0,0,1,1.29.27,4,4,0,0,1,1.2,1.05Zm.88-3.17c-.73-1-1.17-1.56-1.34-1.76a11.33,11.33,0,0,0-1.52-1.6c-.07-.06-.11-.08-.13-.06a.37.37,0,0,0-.06.22l-.26,2.09c2,1.94,3.16,3.05,3.55,3.35s.46.27.56.19.12-.25.06-.55a4.06,4.06,0,0,0-.35-1,5.75,5.75,0,0,0-.51-.9Zm5.46-.82-.22.15a.53.53,0,0,1-.36.11l.23.34a2.84,2.84,0,0,1,.4,1.1,3.28,3.28,0,0,1,0,1,.42.42,0,0,1-.18.26l-1.88,1.28q-.33.22-.51,0a.24.24,0,0,1,0-.3,13.34,13.34,0,0,0,.8-1.64c.37-.9.5-1.44.37-1.63s-.64-.28-1.61-.41l-.22-1.69c0-.11,0-.15.13-.13a8.71,8.71,0,0,0,.87.13,1.33,1.33,0,0,0,.83-.2l.15-.1,1.18,1.73Zm1.46-3.8A3.91,3.91,0,0,0,104,20.79a1.49,1.49,0,0,0-1.7-.24,1.15,1.15,0,0,0-.51,1.14,2.69,2.69,0,0,0,.32,1.27c.31.55.83.63,1.55.23a2.16,2.16,0,0,0,.63-.43.18.18,0,0,1,.07-.05.11.11,0,0,1,.18,0,.19.19,0,0,1,0,.19A4.88,4.88,0,0,1,103,24l-.53.29,1,1.84.54-.3q2.43-1.35,1.11-3.72Zm-1.48-.36c0,.06-.1.17-.4.33s-.5.21-.56.11a.26.26,0,0,1,0-.28.5.5,0,0,1,.22-.21.74.74,0,0,1,.38-.08.38.38,0,0,1,.34.13Zm-.87-2.95s.06,0,0,.1l-.24.75c0,.05,0,.06-.11.05l-.72-.17-.23.7c0,.05,0,.07-.11.06l-.75-.19c-.07,0-.09-.06-.07-.13l.22-.7a.09.09,0,0,1,.13-.07l.72.16.2-.68a.11.11,0,0,1,.13-.07l.78.19Zm11.1-.53a2.4,2.4,0,0,1-.12,2.5,5.42,5.42,0,0,1-2.19,1.47,4.65,4.65,0,0,1-2.11.5,1.78,1.78,0,0,1-1.54-1.23,3,3,0,0,1-.25-1c0-.41,0-.65.21-.72s.31,0,.43.32a1,1,0,0,0,.58.62,3.13,3.13,0,0,0,1.93-.39c.78-.33,1.28-.55,1.49-.66a2.07,2.07,0,0,0,.66-.47c.06-.08.08-.13.06-.16s-.06-.07-.16-.12a2.71,2.71,0,0,0-.82-.24c-.08,0-.11-.05-.1-.11l.19-1.63c0-.07.06-.09.13-.07a2.47,2.47,0,0,1,1.61,1.43ZM113,22.92l-.86-.3a.11.11,0,0,0-.16.07l-.33.78c0,.07,0,.13.06.15l.85.3a.09.09,0,0,0,.13-.05l.35-.82c0-.07,0-.11,0-.13Zm4.73-10.71c.06.24-.13.55-.56.94a3.54,3.54,0,0,1-1.5.85,3.81,3.81,0,0,1-.68.08,3.2,3.2,0,0,0-.68.07c-.08,0-.15.12-.21.29s-.11.27-.17.29-.25-.05-.31-.27a1.64,1.64,0,0,1,.11-.8c.13-.42.27-.66.44-.71-.09,0-.14.05-.13.06a2.09,2.09,0,0,0,.72,0,9.22,9.22,0,0,0,1.37-.16,2.84,2.84,0,0,0,.77-.4,3,3,0,0,1,.6-.34c.12,0,.2,0,.23.11ZM116.7,14c0-.13-.08-.19-.13-.18a.49.49,0,0,0-.15.11L115.16,15a32.88,32.88,0,0,0,1.58,4.74c.17.28.31.41.43.38s.19-.19.28-.49a4.68,4.68,0,0,0,.16-.92,4.17,4.17,0,0,0,0-.93c0-.22-.17-.84-.43-1.88-.2-.84-.36-1.48-.49-1.94Zm8.87,3.91a3.62,3.62,0,0,1-.5,2.8.38.38,0,0,1-.27.16l-2.24.37q-.41.07-.45-.24a.25.25,0,0,1,.13-.27,12.85,12.85,0,0,0,1.41-1.15c.71-.66,1-1.1,1-1.32s-.45-.53-1.27-1.05l.51-1.63c0-.09.09-.11.18-.06a3,3,0,0,1,1,.88,4,4,0,0,1,.51,1.51ZM124,13.76s0,.07,0,.12l-.54.73a.08.08,0,0,1-.13,0l-.76-.49c-.06,0-.06-.09,0-.16l.5-.68a.11.11,0,0,1,.16,0l.77.5Zm3.9,1.78c-.15-1.2-.24-1.94-.29-2.19a11.78,11.78,0,0,0-.52-2.14q0-.14-.09-.12s-.08.05-.16.16l-1.27,1.69c.76,2.66,1.24,4.22,1.43,4.66s.26.47.39.45.23-.16.33-.45a4.75,4.75,0,0,0,.18-1,6,6,0,0,0,0-1Zm4.62-.35a5,5,0,0,1-.06,1,4.11,4.11,0,0,1-.23,1c-.11.28-.23.43-.35.43s-.25-.14-.37-.46-.56-2-1.18-4.74l1.35-1.61c.08-.11.14-.16.17-.16s.05,0,.08.12a13.07,13.07,0,0,1,.42,2.17c0,.26.08,1,.17,2.21ZM137,17.27a3.64,3.64,0,0,1-1,2.66.41.41,0,0,1-.3.11L133.46,20c-.27,0-.4-.11-.39-.32a.26.26,0,0,1,.17-.25,13,13,0,0,0,1.6-.87c.82-.51,1.24-.88,1.24-1.11s-.35-.6-1.06-1.26l.81-1.51q.06-.13.18,0a3.19,3.19,0,0,1,.8,1,4.15,4.15,0,0,1,.23,1.58Zm12.11-.37a5.15,5.15,0,0,1-.35,1,4.58,4.58,0,0,1-.5.9c-.19.24-.35.34-.46.32s-.2-.22-.22-.56,0-2.1.2-4.87l1.75-1.17c.11-.08.18-.11.21-.1s0,0,0,.14a11.47,11.47,0,0,1-.21,2.19c-.05.26-.2,1-.46,2.17Zm6.14,2a2.5,2.5,0,0,1-.93,1.34,1.81,1.81,0,0,1-1.63.17c-1.09-.35-1.48-1-1.16-2a5.35,5.35,0,0,1,.84-1.42c.52-.7.92-1,1.2-.92a2.75,2.75,0,0,1,1.3,1,1.91,1.91,0,0,1,.38,1.85Zm-1-.17q.06-.18-.39-.57a2.35,2.35,0,0,0-.66-.43c-.09,0-.18,0-.29.11a.68.68,0,0,0-.17.28c-.08.25.16.47.72.65s.73.14.79,0ZM160,23.19l.82-1.93-.33-.15c-.29-.12-.42-.41-.4-.85l.1-2.56c0-.08,0-.12,0-.13a.19.19,0,0,0-.14,0l-1.4.52,0,2a.13.13,0,0,1,0,.06c0,.1-.21.13-.5.1a2.48,2.48,0,0,1-.66-.18c-.32-.14-.5-.31-.55-.51a3.59,3.59,0,0,1,0-.5.33.33,0,0,0-.22-.37c-.16-.07-.35.05-.59.35a3.57,3.57,0,0,0-.4.65c-.43,1-.19,1.72.71,2.11a1.83,1.83,0,0,0,1.13.13,3.69,3.69,0,0,0,1.09-.6,1.74,1.74,0,0,0,.94,1.66l.39.17ZM163,22a3.22,3.22,0,0,1-1.14,1.46,1.91,1.91,0,0,1-1.75-.17l-.34-.17.92-1.88,1,.48c.17.08.28.08.33,0a.3.3,0,0,0,0-.19,6.36,6.36,0,0,0-.35-1c0-.06,0-.11.07-.15l1.36-.72c.08,0,.12,0,.14,0s0,.05.07.13A3.26,3.26,0,0,1,163,22Zm1.16-3.64q0,.09-.06.12l-.85.27c-.06,0-.1,0-.13-.07l-.32-.83c0-.07,0-.12.08-.14l.8-.26c.07,0,.12,0,.15.07l.33.84ZM166,25.86a4.11,4.11,0,0,0,.52-1.51,2.94,2.94,0,0,0-.23-1.3c0-.09-.09-.11-.17-.06l-1.41,1a3.36,3.36,0,0,1,.36,1.61c-.11.2-.65.33-1.62.41a12.88,12.88,0,0,1-1.81,0,.25.25,0,0,0-.27.14c-.1.18,0,.34.2.46l2,1.09a.39.39,0,0,0,.31.05,3.69,3.69,0,0,0,2.12-1.9Zm1.28-4.21c0,.05,0,.09-.06.1l-.87.25c-.06,0-.1,0-.11-.07l-.3-.86c0-.06,0-.11.09-.13l.81-.23a.11.11,0,0,1,.15.08l.29.86Zm4.11,8.46-.21-.16a.68.68,0,0,1-.23-.3l-.24.32a2.68,2.68,0,0,1-.91.73,3.34,3.34,0,0,1-1,.36.39.39,0,0,1-.3-.09l-1.83-1.36c-.21-.16-.26-.32-.13-.49a.25.25,0,0,1,.28-.1,13.13,13.13,0,0,0,1.81.22c1,.06,1.53,0,1.66-.17s.07-.7-.13-1.66l1.53-.76c.09,0,.15,0,.16.09.07.42.12.71.16.85a1.38,1.38,0,0,0,.46.73l.14.1-1.25,1.69ZM173,25.49c0,.06,0,.09-.08.09l-.9.12c-.05,0-.09,0-.1-.08l-.17-.89c0-.07,0-.11.11-.12l.84-.11a.1.1,0,0,1,.13.1l.17.89Zm6.64,8.09-1.25.55a3,3,0,0,0-1.05-.7,5.18,5.18,0,0,0-1-.16,5,5,0,0,1-1-.17,3.76,3.76,0,0,1-1.34-.81l-.66-.6,1.42-1.55.82.75a7.22,7.22,0,0,0,1.81,1.3l-.45-.94a2.61,2.61,0,0,0-.41-.64,1.12,1.12,0,0,0-.51-.2,1.39,1.39,0,0,1-.41-.1.27.27,0,0,1,0-.42,2,2,0,0,1,1-.39,1.65,1.65,0,0,1,1.46.3,2.51,2.51,0,0,1,.61,1.14,7.84,7.84,0,0,0,.52,1.42c.11.2.32.51.62.94.06.08.07.14,0,.18a.64.64,0,0,1-.16.1Zm-3.54,2.08-.07-.8a.1.1,0,0,0-.11-.09l-.73,0h0l-.07-.77a.09.09,0,0,0-.1-.09h-.75c-.07,0-.1,0-.09.1l.06.79a.1.1,0,0,0,.09.08l.76,0,.07.77s0,.08.08.08l.8,0c.05,0,.07,0,.07-.07Zm-1.17.37a.06.06,0,0,1-.07.07H174s0,0,0-.07l-.06-.78c0-.06,0-.08.1-.08l.74,0c.06,0,.1,0,.1.09l.07.8Zm7.14,5-.17-.2a.67.67,0,0,1-.14-.35l-.31.26a2.91,2.91,0,0,1-1.06.5,3.33,3.33,0,0,1-1,.12.39.39,0,0,1-.27-.16l-1.46-1.75c-.17-.2-.17-.37,0-.51a.27.27,0,0,1,.3,0,11.46,11.46,0,0,0,1.71.64c.93.29,1.48.36,1.65.22s.23-.67.25-1.64l1.67-.38c.1,0,.15,0,.14.12a6.42,6.42,0,0,0,0,.87,1.27,1.27,0,0,0,.28.81l.11.14L182.08,41ZM186,43.78a2.68,2.68,0,0,0,1.08-1.91,9,9,0,0,0,0-2.38.64.64,0,0,0-.06-.3c-.05-.07-.15-.09-.32-.07l-1.52.25v.33a.8.8,0,0,0-.94.07.7.7,0,0,0-.28.32l-.32-.47-1.74,1.18.49.72a2,2,0,0,0,1.21.71,3.22,3.22,0,0,0,.25,1.46,1.14,1.14,0,0,0,1.12.4,2.13,2.13,0,0,0,1-.31Zm-.68-.67c-.17.12-.31.12-.39,0a1.18,1.18,0,0,1-.11-.42,4,4,0,0,1,0-.45.63.63,0,0,0,.7-.08l.08-.06c0,.56-.08.9-.26,1Zm0-1.71a.29.29,0,0,1-.3,0,.47.47,0,0,1-.27-.2.72.72,0,0,1-.1-.38c0-.19,0-.31.09-.36s.2,0,.35,0a.84.84,0,0,1,.3.25.57.57,0,0,1,.08.35.37.37,0,0,1-.15.3Zm3.07,8.34a4.54,4.54,0,0,1-3.26.71.39.39,0,0,1-.23-.21l-1.07-2q-.18-.36.09-.51a.26.26,0,0,1,.3,0,15,15,0,0,0,1.42.95c.79.48,1.28.68,1.45.61a4.84,4.84,0,0,1-.51-1.19,1.07,1.07,0,0,1,.69-1.1,4.19,4.19,0,0,1,1.47-.46,1.25,1.25,0,0,1,1.39.56,1.3,1.3,0,0,1-.35,1.57,5.18,5.18,0,0,1-1.39,1Zm.24-1.28c.09,0,.13-.15.14-.33a.76.76,0,0,0-.07-.39c-.14-.27-.31-.35-.49-.25s-.07.24.1.57S188.56,48.49,188.61,48.46Z"/><path class="cls-7" d="M146.2,18c-.24,1.93-1.59,2.74-4.07,2.44-1.9-.24-2.76-1.13-2.57-2.68a5.53,5.53,0,0,1,.36-1.23c.25-.64.5-.95.72-.92s.38.2.35.5a2.19,2.19,0,0,1-.11.42,3.41,3.41,0,0,0-.1.43q-.17,1.28,2.16,1.56a7,7,0,0,0,2.25-.07c.13,0,.19-.06.2-.12s-.07-.11-.24-.15l-1.58-.35c-.64-.21-.94-.53-.88-1a3.56,3.56,0,0,1,.76-1.64,2,2,0,0,1,1.79-1,1.28,1.28,0,0,1,1,.7,1.44,1.44,0,0,1,.25.88c0,.3-.1.45-.2.44l-.51-.21a2.82,2.82,0,0,0-.74-.24,1.42,1.42,0,0,0-.86.14c-.21.1-.31.21-.33.31s.21.16.64.27l1.12.29c.48.17.69.57.61,1.21Zm27.31,13.86-.29-.24a1.2,1.2,0,0,1-.43-1.17,1.26,1.26,0,0,1-1.29-.25l-.36-.3,1.34-1.62.23.19a.85.85,0,0,0,.75.24,4.46,4.46,0,0,0,.49-.3.35.35,0,0,1,.45,0c.12.1.13.24,0,.42a2.52,2.52,0,0,0-.22.52.73.73,0,0,0,.34.66l.29.24-1.34,1.62Zm-1.11.84-.1-.79a.09.09,0,0,0-.12-.09l-.71,0-.1-.73c0-.06,0-.1-.11-.09l-.74.05c-.08,0-.11.05-.11.11l.11.78a.09.09,0,0,0,.1.08l.73-.05.09.73c0,.06,0,.09.1.08l.79,0C172.39,32.82,172.42,32.79,172.4,32.73Z"/><path class="cls-8" d="M183.9,61.35A53.88,53.88,0,1,1,83.31,60.9l-14.79-10a71.4,71.4,0,1,0,130.19.44Z"/><path d="M50,181.91A13,13,0,0,1,47.6,189a6.25,6.25,0,0,1-5.07,2.88,3.44,3.44,0,0,1-2.45-1,3.87,3.87,0,0,1-.95-2.63,11.82,11.82,0,0,1,1.75-5.78c.23-.42.36-.55.41-.4a.76.76,0,0,1,0,.47,9.54,9.54,0,0,0-1.19,4,2.43,2.43,0,0,0,.9,1.91,3.76,3.76,0,0,0,2.22.7,6.5,6.5,0,0,0,3.27-.9,5.39,5.39,0,0,0,2.16-2.75,4.36,4.36,0,0,0,.24-1.59c0-.26,0-.58,0-1V182a6.07,6.07,0,0,1,.34-1.59,10.5,10.5,0,0,1,.47-1.26c.13-.26.23-.39.32-.39s.09.07.08.2,0,.4,0,.78S50,180.87,50,181.91ZM46,183.19a1.25,1.25,0,0,1,0,.57,3.34,3.34,0,0,1-.3.7,2.43,2.43,0,0,1-.54.71c-.15.14-.26.21-.35.21a.91.91,0,0,1-.36-.23l-.51-.41c-.15-.13-.28-.24-.39-.35a.4.4,0,0,1-.16-.26q.16-.34.24-.54c.18-.39.33-.7.45-.92s.33-.56.6-1l.58.47a2.89,2.89,0,0,1,.53.5A1.2,1.2,0,0,1,46,183.19Z"/><path d="M53.18,178.64c0,.62,0,1.19,0,1.69s0,.93-.08,1.28a7.59,7.59,0,0,1-.43,2,6.6,6.6,0,0,1-.52,1.16,3.39,3.39,0,0,1-.3.41c-.1.09-.17.12-.23.09a.12.12,0,0,1,0-.15s0-.28.16-.79a9.84,9.84,0,0,0,.19-1.48c0-.48,0-1.16,0-2a14.08,14.08,0,0,1,.06-2,7,7,0,0,1,.18-.84,8.45,8.45,0,0,1,.28-.85,8.14,8.14,0,0,1,.33-.79l.32-.66c.08-.12.15-.17.21-.14a.12.12,0,0,1,.08.14,3.44,3.44,0,0,0-.06.49c0,.26,0,.55-.06.86s0,.63,0,.94S53.18,178.49,53.18,178.64Z"/><path d="M58.76,182.53l.3-.12a1.89,1.89,0,0,1,.16.83,2.66,2.66,0,0,1-.16.83l-.78.28-.87.34a4.33,4.33,0,0,0-1.58,1.36l-1.52,1.87a12.93,12.93,0,0,1-3,2.78c-.25.14-.54.3-.85.45l-1,.5c-.19.09-.33.12-.43.06s0-.14.07-.23a1.77,1.77,0,0,0,.18-.15l.24-.18,1.09-.78c.71-.57,1.14-.92,1.28-1.07a10.24,10.24,0,0,0,.85-.88,5.38,5.38,0,0,0,.73-.81c.22-.26.67-.89,1.36-1.89.39-.55.7-1,.94-1.25a7.81,7.81,0,0,1,1-.95,5.31,5.31,0,0,1,1-.56C57.85,182.89,58.2,182.75,58.76,182.53Z"/><path d="M61.18,184.14l-.64,1.4c-.19.41-.36.57-.49.5s-.07-.18,0-.42l.11-.51q0-.27-.36-.48a2.14,2.14,0,0,0-1-.22,3.8,3.8,0,0,0-1.06.15l-1.85-.17q2-2.41,4-2.41a2.51,2.51,0,0,1,.95.14,1.56,1.56,0,0,1,.56.37.19.19,0,0,1,.06.07l.06,0a2,2,0,0,1,.15.26.89.89,0,0,1,0,.32c0,.12-.08.23-.12.32Z"/><path d="M59.49,172.7a4.92,4.92,0,0,1,.54-1.18c.35-.67.57-1,.65-1s.36,0,.65.32a4.73,4.73,0,0,1,.64.72l.58-1c.22-.36.36-.54.43-.54a1.2,1.2,0,0,1,.77.48,1.49,1.49,0,0,1,.48.89,2.19,2.19,0,0,1-.48,1.18q-.48.66-.69.66c-.1,0-.27-.12-.53-.38a5,5,0,0,0-.66-.58c-.47.94-.85,1.42-1.12,1.42a.58.58,0,0,1-.3-.17l-.57-.47Q59.49,172.77,59.49,172.7Zm2,10.8a.91.91,0,0,1-.41.05,1.78,1.78,0,0,1-.33-.05A10.36,10.36,0,0,1,62,181.59a12.72,12.72,0,0,1,1.21-1.44,4.4,4.4,0,0,1,.8-.63c.17-.08.27-.08.28,0s-.06.34-.27.73a8.22,8.22,0,0,0-.42.93,1.07,1.07,0,0,1-.44.43,3.24,3.24,0,0,0-.86.77A5.94,5.94,0,0,0,61.53,183.5Z"/><path d="M71.25,182.53l.3-.12a2,2,0,0,1,.16.83,2.66,2.66,0,0,1-.16.83l-.78.28-.88.34a4.4,4.4,0,0,0-1.57,1.36l-1.52,1.87a12.93,12.93,0,0,1-3,2.78c-.25.14-.54.3-.85.45l-1,.5c-.19.09-.33.12-.43.06s0-.14.07-.23a1.77,1.77,0,0,0,.18-.15l.23-.18,1.1-.78c.71-.57,1.14-.92,1.28-1.07a10.24,10.24,0,0,0,.85-.88,6,6,0,0,0,.73-.81c.22-.26.67-.89,1.36-1.89.39-.55.7-1,.94-1.25a8.53,8.53,0,0,1,1-.95,5.74,5.74,0,0,1,1-.56C70.34,182.89,70.69,182.75,71.25,182.53Z"/><path d="M73.67,184.14l-.64,1.4c-.19.41-.36.57-.49.5s-.07-.18,0-.42l.11-.51q0-.27-.36-.48a2.14,2.14,0,0,0-1-.22,3.66,3.66,0,0,0-1,.15l-1.86-.17q2-2.41,4-2.41a2.51,2.51,0,0,1,1,.14,1.56,1.56,0,0,1,.56.37.19.19,0,0,1,.06.07l.06,0a2,2,0,0,1,.15.26.89.89,0,0,1,0,.32c0,.12-.08.23-.12.32Z"/><path d="M74,183.5a1.45,1.45,0,0,1-.42.11.61.61,0,0,1-.39-.11,12.62,12.62,0,0,1,1.53-2.28c.59-.7,1-1,1.35-.89s.66.19.83,0a2.67,2.67,0,0,0,.4-.91.14.14,0,0,1,.11-.11.18.18,0,0,1,.15.07c.3.32.56.14.79-.55.07-.21.16-.32.24-.32s.07,0,.08.12a.67.67,0,0,1,0,.2,3.33,3.33,0,0,1-.43,1.3,1.63,1.63,0,0,1-.74.79,1.29,1.29,0,0,0-.6.33l-.35.37a.55.55,0,0,1-.32.18,1.81,1.81,0,0,1-.46,0,.67.67,0,0,0-.5.14,3.44,3.44,0,0,0-.68.72A3.85,3.85,0,0,0,74,183.5Zm.73-9.62a5.91,5.91,0,0,1,.55-1.18c.37-.69.6-1,.69-1a1.3,1.3,0,0,1,.66.37,2.48,2.48,0,0,1,.61.72c.19-.31.37-.62.54-.91s.41-.63.47-.63a1.34,1.34,0,0,1,.8.45,1.41,1.41,0,0,1,.47.91,2.39,2.39,0,0,1-.47,1.2q-.48.69-.69.69c-.11,0-.28-.11-.48-.32a5.62,5.62,0,0,0-.72-.67c-.48,1-.85,1.46-1.12,1.46a2.63,2.63,0,0,1-.7-.48C75,174.14,74.75,174,74.75,173.88Zm1.19-3.23a6.28,6.28,0,0,1,.49-1.16q.48-1,.63-1a1.27,1.27,0,0,1,.81.44,1.49,1.49,0,0,1,.44,1,2.65,2.65,0,0,1-.41,1.19c-.27.51-.47.76-.6.76s-.26-.12-.53-.36-.47-.41-.62-.52S75.94,170.73,75.94,170.65Z"/><path d="M97.38,182.39c0,.21-.1.43-.15.67a5.81,5.81,0,0,1-.27.73,1.48,1.48,0,0,1-.39.57c-.14.14-.24.18-.32.11,0-.44,0-.91.09-1.41s.1-.93.15-1.3c0-.07,0-.1,0-.11a.11.11,0,0,0-.11,0c-.16.23-.28.39-.35.48l-.73,1a10.2,10.2,0,0,1-2,1.89,10.48,10.48,0,0,1-2.56,1.4,20.12,20.12,0,0,1-3.09.86,17.1,17.1,0,0,1-3.58.37h-.39a12.89,12.89,0,0,1-1.88-.13,2.52,2.52,0,0,1-1.55-.72,2.33,2.33,0,0,1-.44-1.5,16.91,16.91,0,0,1,.11-1.83c.07-.64.19-.93.37-.85s.09.18.12.52a1.49,1.49,0,0,0,.39.93c.48.53,1.65.8,3.5.8,1,0,1.79,0,2.41-.08a15.84,15.84,0,0,0,7.15-2.12,6.22,6.22,0,0,0,2-1.84,6.56,6.56,0,0,0,.88-2l.36-1.52a8.94,8.94,0,0,1,.61-1.36l.28-.59c.08-.16.13-.27.17-.34s.1-.17.18-.18.11.06.09.22c-.08.36-.15.66-.19.91a48.68,48.68,0,0,0-.81,4.9C97.4,181.6,97.38,182.08,97.38,182.39Zm2.2-9.59c.43-.42,1.26-1.16,2.5-2.19q.86-.68,3.64-3c1.85-1.56,3.35-2.9,4.47-4s1.73-1.71,1.8-1.76.13,0,.09.2-.39.69-.64,1.16a8.81,8.81,0,0,1-.76,1.12q-.47.6-.93,1.11c-.43.47-1,1-1.54,1.53s-1.78,1.56-3.55,3-3.23,2.61-4.39,3.5a8.87,8.87,0,0,1-1.79,1.26q-.24,0,.42-1.05A4.63,4.63,0,0,1,99.58,172.8Z"/><path d="M95.83,196.33a5.37,5.37,0,0,1,.53-1.17c.36-.67.58-1,.66-1s.36,0,.64.32a5.43,5.43,0,0,1,.65.73l.58-1c.21-.35.35-.53.42-.53a1.23,1.23,0,0,1,.78.47,1.54,1.54,0,0,1,.48.9,2.09,2.09,0,0,1-.49,1.17c-.31.45-.54.67-.69.67s-.27-.13-.52-.38a5.33,5.33,0,0,0-.67-.59c-.47.95-.84,1.42-1.12,1.42a.54.54,0,0,1-.3-.16c-.12-.11-.31-.27-.57-.47S95.83,196.39,95.83,196.33Zm.42-11.89a5.64,5.64,0,0,1,.59-1.65c.22-.36.4-.56.54-.59v.57A1.79,1.79,0,0,0,98,184.3a.88.88,0,0,0,.7.16.9.9,0,0,0,.55-.37,3.21,3.21,0,0,0,.32-.67q.12-.39.24-.39c.1,0,.14.1.12.28a8.39,8.39,0,0,1-.29,1.53,5.44,5.44,0,0,1-.77,1.73,1.54,1.54,0,0,1-1.17.72,1.26,1.26,0,0,1-1.1-.8,4.44,4.44,0,0,1-.32-2Z"/><path d="M103.15,187.29a3.19,3.19,0,0,0-2,.47.15.15,0,0,1-.19,0c-.06-.05,0-.19.05-.4a5.76,5.76,0,0,1,2.14-2.23A3.06,3.06,0,0,1,103.15,187.29Z"/><path d="M110,185.32a3,3,0,0,1-1.45.66l-.87.16a14.2,14.2,0,0,1-1.28.89,4.08,4.08,0,0,1-1.89.53,2.88,2.88,0,0,1-.72-.1c-.21-.06-.43-.12-.67-.17a2.29,2.29,0,0,1-.22-1.07,3.78,3.78,0,0,1,.22-1.08,3,3,0,0,1,1.31-.41,3.56,3.56,0,0,1,.67.11,3.21,3.21,0,0,0,.68.11,10.35,10.35,0,0,1,.47-1l.19-.34.27-.44.41-.49c.13-.17.28-.34.43-.52a1.24,1.24,0,0,1,.77-.43,1,1,0,0,1,.67.32,1.17,1.17,0,0,1,.34.93,3.35,3.35,0,0,1-.14.94c-.09.39-.13.57-.13.54l.47-.05a1.37,1.37,0,0,0,.47-.2l0,.08a1,1,0,0,1,.13.46.8.8,0,0,1,0,.31Zm-5.26-8.21a5.34,5.34,0,0,1,.53-1.18c.36-.67.58-1,.66-1s.36,0,.64.32a4.88,4.88,0,0,1,.65.72l.58-1q.32-.54.42-.54a1.21,1.21,0,0,1,.78.48,1.52,1.52,0,0,1,.48.89A2.14,2.14,0,0,1,109,177q-.47.66-.69.66c-.09,0-.27-.12-.52-.38a5.93,5.93,0,0,0-.66-.58c-.47.95-.85,1.42-1.13,1.42a.58.58,0,0,1-.3-.17l-.56-.47Q104.77,177.19,104.77,177.11Zm3.84,6.82a.6.6,0,0,0-.28-.45.9.9,0,0,0-1.22.06.79.79,0,0,0-.32.55c0,.09.1.19.29.3a1.07,1.07,0,0,0,.57.16,1.19,1.19,0,0,0,.42-.11Q108.61,184.2,108.61,183.93Z"/><path d="M110,185.32a5.41,5.41,0,0,1-.12-.55.75.75,0,0,1,.12-.55,9.16,9.16,0,0,0,1.59-1.17,7.22,7.22,0,0,0,.88-.89c.21-.25.32-.44.31-.56a1.06,1.06,0,0,0-.29-.21.91.91,0,0,0-.52-.11,1.08,1.08,0,0,0-.8.38,5.31,5.31,0,0,0-.61.85l-.48.77q-.17.27-.33.21s-.07-.08-.06-.18a1.15,1.15,0,0,1,.14-.37,5.7,5.7,0,0,0,.35-.7,5.61,5.61,0,0,0,.24-.93,8.37,8.37,0,0,0,.11-1.58l.06-2.16a2.48,2.48,0,0,1,.26-.78l.41-.9c.11-.21.22-.44.33-.67,0,0,.06,0,.09,0s0,.09,0,.2a9.5,9.5,0,0,0-.15,1.24c0,.39-.11,1.44-.25,3.16-.09.55-.14.94-.16,1.15a3.39,3.39,0,0,1,.92-1.09,1.36,1.36,0,0,1,.67-.25.8.8,0,0,1,.68.28,1,1,0,0,1,.24.61,3.74,3.74,0,0,1-.45,1.51,6.21,6.21,0,0,1-1.34,1.87c-.06.06-.27.25-.64.55l-.53.42Z"/><path d="M113.16,183.79a9.7,9.7,0,0,1-1.55.78l-.77.29a5.22,5.22,0,0,1-.81.21,2.38,2.38,0,0,0-.08-.26,6.12,6.12,0,0,1,1.71-1.2l.35-.18.54-.31a4.23,4.23,0,0,0,.66-.45,6.72,6.72,0,0,0,1.2-1.18.54.54,0,0,1,.57.16.58.58,0,0,1,.15.29.89.89,0,0,1,.05.25.52.52,0,0,0-.33.09c-.1.07-.24.19-.44.36s-.43.48-.63.67A3.13,3.13,0,0,1,113.16,183.79Zm-1.24-13.91a3.85,3.85,0,0,1,.49-1.25q.5-1,.63-1c.2-.08.47.07.84.44a1.94,1.94,0,0,1,.59.87,2.77,2.77,0,0,1-.46,1.2c-.31.52-.53.78-.67.78s-.23-.14-.54-.34l-.68-.47A.35.35,0,0,1,111.92,169.88Z"/><path d="M114.41,181.49l.49-.61c.21-.29.41-.43.61-.43a2.92,2.92,0,0,1,.48.13.94.94,0,0,0,.37,0,.72.72,0,0,0,.61-.34c0-.07.17-.28.36-.62a8.07,8.07,0,0,1,1.38-1.9l.61-.47.51-.83c.19-.3.32-.44.39-.44a1.45,1.45,0,0,1,.21.18q.33.33.48.51a2.09,2.09,0,0,1,.54.72,1.8,1.8,0,0,1,.08.5,2,2,0,0,1-.15.7,2.14,2.14,0,0,1-.34.6,1.31,1.31,0,0,1-.46.41,1.46,1.46,0,0,1-.49.11,1.82,1.82,0,0,1-.35,0,3.69,3.69,0,0,0-.64-.17,1.47,1.47,0,0,0-.87.4,6,6,0,0,0-.85,1.15l-.28.46c-.08.14-.17.28-.26.41a1.08,1.08,0,0,1-1.17.36,1.83,1.83,0,0,0-.49-.13,1.9,1.9,0,0,1-.47-.3A1.08,1.08,0,0,1,114.41,181.49Z"/><path d="M129,184.46c.75,0,1.59,0,2.51-.11a20.19,20.19,0,0,0,2.67-.38,14.83,14.83,0,0,0,2.3-.71,6.12,6.12,0,0,0,1.46-.79,2.92,2.92,0,0,0,.69-.81c.18-.29.29-.44.34-.44s.1.1.08.3a5.08,5.08,0,0,1-.34,1.12,7.87,7.87,0,0,1-.75,1.44,3.75,3.75,0,0,1-.91.91,11.41,11.41,0,0,1-1.71.94,14.91,14.91,0,0,1-1.82.61,20.4,20.4,0,0,1-3,.57,23.74,23.74,0,0,1-2.86.18,16.78,16.78,0,0,1-2.45-.13,3.45,3.45,0,0,1-2-.84,1.64,1.64,0,0,1-.53-1.3,6.72,6.72,0,0,1,.09-.93q.09-.6.21-1.2c.09-.4.15-.66.19-.79s.11-.19.2-.19.14.08.16.23,0,.39.07.72.28.64.76.9A11.69,11.69,0,0,0,129,184.46Zm-1,8.09a3.85,3.85,0,0,1,.49-1.25q.5-1,.63-1c.2-.08.47.07.84.44a1.86,1.86,0,0,1,.59.87,2.77,2.77,0,0,1-.46,1.2c-.3.52-.53.78-.67.78s-.23-.14-.54-.34l-.68-.47A.35.35,0,0,1,128,192.55Z"/><path d="M145.71,178.67c0,.34,0,.76-.05,1.25s0,.84,0,1a9.27,9.27,0,0,1-.21,1.72c-.11.46-.22.83-.31,1.1a9.25,9.25,0,0,1-.34.92,6.13,6.13,0,0,1-.6,1.11,5,5,0,0,1-.77,1,2,2,0,0,1-1.3.51,1.32,1.32,0,0,1-.64-.19,2.59,2.59,0,0,1-.5-.44l-.27-.22a.5.5,0,0,1-.18-.36.62.62,0,0,1,.13-.3l.3-.37.21-.32a2.22,2.22,0,0,0,.23-.55,6.15,6.15,0,0,0,.16-.91c0-.37.06-.7.07-1l0-.81c0-.28,0-.57,0-.88a10.86,10.86,0,0,1,.42-2.61c.18-.63.48-1.49.88-2.57a.35.35,0,0,1,.07-.14s.05,0,.07,0,.09.17.08.49c0,.16,0,.41,0,.76s-.05.58-.06.68l-.28,3.39a13.74,13.74,0,0,1-.15,1.4,8.14,8.14,0,0,1-.38,1.47,6.41,6.41,0,0,1-.87,1.82s.09,0,.21,0h.32a2.17,2.17,0,0,0,1.44-.54,2.53,2.53,0,0,0,.91-1.2,4.69,4.69,0,0,0,.21-1.27c.06-1,.11-1.84.15-2.57a16,16,0,0,1,.16-1.76,9.59,9.59,0,0,1,.36-1.48c.16-.53.43-1.22.78-2.06.05-.09.1-.12.15-.11a3.37,3.37,0,0,1-.06,1C145.88,176.38,145.8,177.37,145.71,178.67Z"/><path d="M145.65,179.37A2.88,2.88,0,0,0,146,181a1.59,1.59,0,0,0,1.38.79,1.81,1.81,0,0,0,.85-.18,1.47,1.47,0,0,0,.6-.61,8.34,8.34,0,0,1,.51-.76A.51.51,0,0,1,150,180a3.73,3.73,0,0,0,1.07.3,3.28,3.28,0,0,0,.5-.72c.24-.42.49-.81.74-1.2a4.93,4.93,0,0,1,.87-1,2,2,0,0,1,1-.5c.66,0,1,.29,1,.93a4.67,4.67,0,0,1-1.18,2.87,3.8,3.8,0,0,1-3,1.66,3.12,3.12,0,0,1-1.09-.18,3,3,0,0,1-.63-.32c-.07,0-.18.08-.33.29a10.28,10.28,0,0,0-.6.91,2.87,2.87,0,0,1-.84.91,2,2,0,0,1-1.09.31,1.7,1.7,0,0,1-1.42-.74,3.39,3.39,0,0,1-.44-2.1,12.73,12.73,0,0,1,.54-1.44A1.27,1.27,0,0,1,145.65,179.37Zm3.82-5.39a3.77,3.77,0,0,1,.49-1.25q.49-1,.63-1c.2-.08.47.07.84.44a1.94,1.94,0,0,1,.59.87,2.86,2.86,0,0,1-.46,1.2c-.31.52-.53.78-.67.78l-.54-.35-.68-.46C149.54,174.16,149.47,174.07,149.47,174Zm4.82,4.77a.47.47,0,0,0-.31-.34,1.33,1.33,0,0,0-.57-.14,1.14,1.14,0,0,0-.85.55c-.24.35-.42.62-.55.83s-.27.43-.42.68a3.3,3.3,0,0,0,.73-.08,2.71,2.71,0,0,0,.93-.41,3.79,3.79,0,0,0,.75-.64C154.19,179,154.29,178.84,154.29,178.75Z"/><path d="M157.15,182.37a2.74,2.74,0,0,0,.23,1.41,1.38,1.38,0,0,0,.67.6,2.28,2.28,0,0,0,2.89-1,.83.83,0,0,0-.22-.4.35.35,0,0,0-.36-.09,1.67,1.67,0,0,0-.27.14.91.91,0,0,1-.4.14,1,1,0,0,1-.86-.49.57.57,0,0,1,0-.48,6.56,6.56,0,0,1,.32-.83,6.9,6.9,0,0,1,.5-1c.27-.41.53-.62.79-.62a1.49,1.49,0,0,1,1,.58,2.09,2.09,0,0,1,.49,1.5,6,6,0,0,1-.44,2.06,7.32,7.32,0,0,1-1.07,2,6.26,6.26,0,0,1-.72.77,2.43,2.43,0,0,1-1.62.59,1.78,1.78,0,0,1-1.62-.82,3.57,3.57,0,0,1-.48-2c0-.68.08-1.63.22-2.84s.33-2.56.6-4c.14-.42.42-1.18.85-2.26,0-.1.09-.14.14-.13s.07.06.07.13c0,.53-.14,1.55-.33,3s-.31,2.53-.35,3.08S157.15,182.25,157.15,182.37Zm2.45-6.78a3.83,3.83,0,0,1,.49-1.24c.32-.64.54-1,.63-1s.47.07.84.44a1.85,1.85,0,0,1,.58.86,2.72,2.72,0,0,1-.45,1.2c-.31.53-.53.79-.67.79l-.54-.35-.69-.46A.35.35,0,0,1,159.6,175.59Z"/><path d="M167.93,183.62a9.78,9.78,0,0,1-.85,1.87,2.58,2.58,0,0,1-.62.74,3,3,0,0,1-.66.31l-1.35.46a6.49,6.49,0,0,1-1.08.29c-.07,0-.1,0-.1,0s.29-.41,1.08-.94,1.3-.88,1.53-1.05a3,3,0,0,0,.71-.72,3.4,3.4,0,0,0,.53-1.08.62.62,0,0,0-.37.07.77.77,0,0,1-.38.1,1.22,1.22,0,0,1-.81-.31.76.76,0,0,1-.27-.67c0-.15.08-.32.15-.51a9.28,9.28,0,0,1,.41-.94,6.91,6.91,0,0,1,.63-1.05.88.88,0,0,1,.64-.42,1.09,1.09,0,0,1,.89.46,1.7,1.7,0,0,1,.36,1.09,4.73,4.73,0,0,1,0,.65,4.67,4.67,0,0,1-.08.53c0,.15-.08.33-.13.55S168,183.43,167.93,183.62Z"/><path d="M175.76,184.46c.75,0,1.58,0,2.51-.11a20,20,0,0,0,2.66-.38,14.64,14.64,0,0,0,2.31-.71,6.34,6.34,0,0,0,1.46-.79,2.92,2.92,0,0,0,.69-.81c.17-.29.29-.44.34-.44s.1.1.08.3a5.08,5.08,0,0,1-.34,1.12,7.87,7.87,0,0,1-.75,1.44,3.75,3.75,0,0,1-.91.91,11.41,11.41,0,0,1-1.71.94,15.69,15.69,0,0,1-1.83.61,20.16,20.16,0,0,1-3,.57,23.45,23.45,0,0,1-2.85.18,17,17,0,0,1-2.46-.13,3.45,3.45,0,0,1-2-.84,1.65,1.65,0,0,1-.54-1.3,6.72,6.72,0,0,1,.09-.93c.07-.4.14-.8.22-1.2s.15-.66.19-.79.11-.19.2-.19.14.08.16.23,0,.39.07.72.28.64.76.9A11.69,11.69,0,0,0,175.76,184.46Zm-1,8.09a3.85,3.85,0,0,1,.49-1.25q.5-1,.63-1c.19-.08.47.07.84.44a1.82,1.82,0,0,1,.58.87,2.72,2.72,0,0,1-.45,1.2c-.31.52-.53.78-.67.78s-.23-.14-.54-.34-.54-.36-.68-.47A.33.33,0,0,1,174.74,192.55Z"/><path d="M193.3,172.55a4.43,4.43,0,0,0,1.79-.35,5.68,5.68,0,0,0,.88-.48l.55-.36a.42.42,0,0,1,.22-.09c.06,0,.08,0,.08.14a.74.74,0,0,1-.13.32,4.49,4.49,0,0,1-.68.92,5.6,5.6,0,0,1-1.07.9,8.12,8.12,0,0,1-1.71.87,5.27,5.27,0,0,1-1.89.22,3.59,3.59,0,0,1-.8-.14,6.21,6.21,0,0,0-.85-.18,2,2,0,0,0-.89.05,2.61,2.61,0,0,0-.65.3c-.18.12-.34.24-.5.37s-.26.16-.34.11,0-.2.11-.4a3.65,3.65,0,0,1,.46-.64,6.08,6.08,0,0,1,1.42-1.27,3.11,3.11,0,0,1,1.58-.59,11.24,11.24,0,0,1,1.32.21A6.62,6.62,0,0,0,193.3,172.55Zm-2.39,7.39c0,.63,0,1.19,0,1.7a11.05,11.05,0,0,1-.08,1.28,7.68,7.68,0,0,1-.43,2,7.48,7.48,0,0,1-.51,1.15,4.63,4.63,0,0,1-.31.42c-.1.09-.17.11-.22.08a.12.12,0,0,1,0-.15s0-.28.15-.79a9.72,9.72,0,0,0,.2-1.48c0-.48,0-1.15,0-2a13.85,13.85,0,0,1,.07-2,5.1,5.1,0,0,1,.17-.83c.08-.29.18-.57.28-.85s.22-.55.34-.79.22-.47.32-.66.14-.17.2-.15a.12.12,0,0,1,.08.15c0,.07,0,.23-.06.49s0,.54-.05.86,0,.63,0,.93S190.91,179.79,190.91,179.94Z"/><path d="M210.76,182.62a4.38,4.38,0,0,0-.77.06,1.46,1.46,0,0,0-.62.35,3.66,3.66,0,0,0-.64.73c-.11.16-.21.32-.32.47s-.22.3-.32.46a3.69,3.69,0,0,1-.88.84,9.42,9.42,0,0,1-3.57,1.43,24,24,0,0,1-5.16.51,18.21,18.21,0,0,1-2-.1,3.44,3.44,0,0,1-1.57-.43,2,2,0,0,1-.83-1.87,10.75,10.75,0,0,1,.15-1.77c.08-.66.18-1,.3-1s.13.2.19.6a1.5,1.5,0,0,0,.43.94,2.61,2.61,0,0,0,1.16.54,10.09,10.09,0,0,0,2.33.23c.83,0,1.77,0,2.81,0s1.88-.11,2.53-.2a16.67,16.67,0,0,0,2.38-.56,8.7,8.7,0,0,0,1.54-.6,3.83,3.83,0,0,0,1-.68,5.11,5.11,0,0,0,.35-.45,5.25,5.25,0,0,1,.51-.62,1.84,1.84,0,0,1,1-.56.85.85,0,0,1,.37.87A2.36,2.36,0,0,1,210.76,182.62Zm-11.94-2.91a4.92,4.92,0,0,1,.54-1.18c.35-.67.57-1,.65-1s.36,0,.64.32a4.88,4.88,0,0,1,.65.72l.58-1c.21-.35.36-.53.42-.53a1.21,1.21,0,0,1,.78.48,1.49,1.49,0,0,1,.48.89,2.14,2.14,0,0,1-.48,1.17c-.32.45-.55.67-.7.67s-.27-.13-.52-.38a6.16,6.16,0,0,0-.66-.59c-.47.95-.85,1.43-1.13,1.43a.58.58,0,0,1-.3-.17c-.12-.11-.31-.26-.57-.47S198.82,179.76,198.82,179.71Z"/><path d="M210.76,182.62a3.76,3.76,0,0,1-.14-.86,2.3,2.3,0,0,1,.14-.85,2.18,2.18,0,0,1,.67.1c.23.07.4-.07.53-.43a3.92,3.92,0,0,0,.19-.85,8.67,8.67,0,0,0,.07-1l0-3.63.61-1.92.46-1.37c.06-.14.12-.15.18,0a1.09,1.09,0,0,1,0,.35c0,.38,0,.77-.06,1.19s0,.9-.07,1.29c-.07,2.26-.14,3.64-.2,4.14a7.23,7.23,0,0,1-.29,1.41,5.73,5.73,0,0,1-.5,1.14,9.31,9.31,0,0,1-.68,1,1,1,0,0,1-.66.43A.9.9,0,0,1,210.76,182.62Zm3.87-12.9a30.75,30.75,0,0,1,2.5-2.19q1.56-1.22,3.42-2.74c.78-.65,1.56-1.33,2.35-2.06.43-.4,1.13-1.08,2.12-2,1.34-1.29,2-2,2-2a.79.79,0,0,1-.06.25,5.82,5.82,0,0,1-.51,1.12,10.21,10.21,0,0,1-.73,1.11c-.22.3-.53.67-.91,1.11s-.72.77-.8.85-.68.64-1.35,1.25l-.91.8-1.26,1.07c-.65.55-1.26,1-1.81,1.47-.74.58-1.46,1.13-2.15,1.63l-1.84,1.44-.39.32-.36.28q-.37.3-.42.21a7.55,7.55,0,0,1,.48-1.07A4,4,0,0,1,214.63,169.72Z"/><path d="M217.48,179.85l.28-.09.28,0a1.69,1.69,0,0,1,.33.69,2.3,2.3,0,0,1,0,.69,2.42,2.42,0,0,1-.13.66,6.31,6.31,0,0,1-.25.58,3.36,3.36,0,0,0-.52,0,3,3,0,0,0-.78.12,7,7,0,0,0-1,.42,5.25,5.25,0,0,0-1.62,1.36c-.43.54-.94,1.24-1.55,2.09a15.41,15.41,0,0,1-1.85,2.19,13.93,13.93,0,0,1-1.55,1.37q-.62.43-1.14.75a8.33,8.33,0,0,1-1.12.55l-.13,0a1,1,0,0,1-.21.08.38.38,0,0,1-.36,0s0-.12.12-.25a7.26,7.26,0,0,1,.74-.63c.42-.27.89-.62,1.42-1a15,15,0,0,0,1.61-1.53,14.42,14.42,0,0,0,1.58-2.07c.23-.31.45-.64.66-1,.78-1.12,1.28-1.82,1.5-2.09a9.78,9.78,0,0,1,1.92-1.87A8,8,0,0,1,217.48,179.85Z"/><path d="M223.34,177.27c-.37.92-.71,1.39-1,1.4a2.43,2.43,0,0,0-.56.09,1.65,1.65,0,0,0-.5.24,2.71,2.71,0,0,0-.59.64,16.69,16.69,0,0,1-1.53,2.32,1.36,1.36,0,0,1-1.12.37,4.5,4.5,0,0,1,0-2.62,5.72,5.72,0,0,1,1-.09h.5c.18,0,.37-.13.56-.39l.41-.57.58-.74a1.65,1.65,0,0,1,.87-.61,3.39,3.39,0,0,1,.77-.11c.12-.18.23-.36.33-.53a.73.73,0,0,1,.25-.3c.11,0,.17,0,.19.19A2.35,2.35,0,0,1,223.34,177.27Zm-3.93-5.81a5.4,5.4,0,0,1,.61-1.22c.4-.7.64-1.05.73-1.05a1.39,1.39,0,0,1,.71.38,2.28,2.28,0,0,1,.66.74l.58-.94c.27-.43.44-.64.51-.64a1.79,1.79,0,0,1,1.36,1.4,2.31,2.31,0,0,1-.51,1.21c-.34.48-.59.72-.74.72s-.3-.12-.52-.34A5.55,5.55,0,0,0,222,171c-.52,1-.92,1.49-1.2,1.49a2.94,2.94,0,0,1-.76-.49C219.63,171.71,219.41,171.52,219.41,171.46Zm1.28-3.31a6.4,6.4,0,0,1,.53-1.18c.36-.7.58-1.05.69-1.05a1.34,1.34,0,0,1,.86.46,1.46,1.46,0,0,1,.48,1,2.75,2.75,0,0,1-.44,1.21c-.3.51-.52.77-.65.77s-.28-.12-.57-.37a8.25,8.25,0,0,0-.66-.52C220.77,168.34,220.69,168.24,220.69,168.15Z"/></g></g></svg>