<svg xmlns="http://www.w3.org/2000/svg" xmlns:xlink="http://www.w3.org/1999/xlink" viewBox="0 0 460.8 307.2"><defs><style>.cls-1,.cls-6,.cls-7,.cls-8,.cls-9{fill:none;}.cls-2{isolation:isolate;}.cls-3{fill:url(#linear-gradient);}.cls-4{clip-path:url(#clip-path);}.cls-5{opacity:0.31;mix-blend-mode:overlay;}.cls-6,.cls-7,.cls-8,.cls-9{stroke-miterlimit:10;}.cls-6{stroke:url(#linear-gradient-2);}.cls-7{stroke:url(#linear-gradient-3);}.cls-8{stroke:url(#linear-gradient-4);}.cls-9{stroke:url(#linear-gradient-5);}</style><linearGradient id="linear-gradient" x1="25.21" y1="27.07" x2="444.3" y2="285.51" gradientUnits="userSpaceOnUse"><stop offset="0" stop-color="#74aeaf"/><stop offset="1" stop-color="#183d61"/></linearGradient><clipPath id="clip-path"><rect class="cls-1" width="460.8" height="307.2"/></clipPath><linearGradient id="linear-gradient-2" x1="-90.09" y1="126.3" x2="479.17" y2="126.3" gradientUnits="userSpaceOnUse"><stop offset="0" stop-color="#ed1c24"/><stop offset="0.01" stop-color="#ee2e36"/><stop offset="0.06" stop-color="#f3656a"/><stop offset="0.11" stop-color="#f79498"/><stop offset="0.16" stop-color="#fabbbd"/><stop offset="0.2" stop-color="#fcd9da"/><stop offset="0.25" stop-color="#feeeee"/><stop offset="0.29" stop-color="#fffbfb"/><stop offset="0.34" stop-color="#fff"/><stop offset="0.39" stop-color="#e6e6f2"/><stop offset="0.51" stop-color="#aeb0d5"/><stop offset="0.62" stop-color="#8082bd"/><stop offset="0.73" stop-color="#5d5faa"/><stop offset="0.83" stop-color="#43469d"/><stop offset="0.93" stop-color="#333695"/><stop offset="1" stop-color="#2e3192"/></linearGradient><linearGradient id="linear-gradient-3" x1="-1394.23" y1="143.93" x2="-841.94" y2="143.93" gradientTransform="matrix(-1, -0.09, -0.09, 1, -853.95, -37.78)" xlink:href="#linear-gradient-2"/><linearGradient id="linear-gradient-4" x1="-158.21" y1="37.16" x2="534.64" y2="37.16" xlink:href="#linear-gradient-2"/><linearGradient id="linear-gradient-5" x1="-1412.89" y1="345.41" x2="-817.81" y2="345.41" gradientTransform="matrix(-0.99, 0.13, 0.13, 0.99, -873.04, 55.52)" xlink:href="#linear-gradient-2"/></defs><title>Bacground</title><g class="cls-2"><g id="BACKGROUND"><rect class="cls-3" width="460.8" height="307.2"/><g class="cls-4"><g class="cls-5"><path class="cls-6" d="M-89.81,107.61S15.31,39.16,194.65,131.36s265.24-8.38,284.1-37"/><path class="cls-7" d="M-31.48,210.75s169.9-45.61,306.15-2.65,224.4,15.67,248.23,1"/><path class="cls-8" d="M-157.91-1.52C-135.56,15.35-49.27,55.37,89.32,20.72,240.6-17.1,391.37,50.83,393.86,52l.05,0c1.57.74,76.33,35.9,140.6,19.31"/><path class="cls-9" d="M579.71,280.49s-125.83-53.61-372.53,2.82C44.12,320.61-25.47,233.68-25.47,233.68"/></g></g></g></g></svg>