<svg xmlns="http://www.w3.org/2000/svg" xmlns:xlink="http://www.w3.org/1999/xlink" viewBox="0 0 154.44 133.98"><defs><style>.cls-1,.cls-5{fill:none;}.cls-2{isolation:isolate;}.cls-3{clip-path:url(#clip-path);}.cls-4{opacity:0.31;mix-blend-mode:overlay;}.cls-5{stroke-miterlimit:10;stroke:url(#linear-gradient);}.cls-6{fill:#1c3c60;}.cls-7{fill:#73aeaf;}</style><clipPath id="clip-path"><rect class="cls-1" x="-864.05" y="-18.6" width="750" height="500"/></clipPath><linearGradient id="linear-gradient" x1="-1121.37" y1="41.84" x2="6.04" y2="41.84" gradientUnits="userSpaceOnUse"><stop offset="0" stop-color="#ed1c24"/><stop offset="0.01" stop-color="#ee2e36"/><stop offset="0.06" stop-color="#f3656a"/><stop offset="0.11" stop-color="#f79498"/><stop offset="0.16" stop-color="#fabbbd"/><stop offset="0.2" stop-color="#fcd9da"/><stop offset="0.25" stop-color="#feeeee"/><stop offset="0.29" stop-color="#fffbfb"/><stop offset="0.34" stop-color="#fff"/><stop offset="0.39" stop-color="#e6e6f2"/><stop offset="0.51" stop-color="#aeb0d5"/><stop offset="0.62" stop-color="#8082bd"/><stop offset="0.73" stop-color="#5d5faa"/><stop offset="0.83" stop-color="#43469d"/><stop offset="0.93" stop-color="#333695"/><stop offset="1" stop-color="#2e3192"/></linearGradient></defs><title>Logo Caspian</title><g class="cls-2"><g id="BACKGROUND"><g class="cls-3"><g class="cls-4"><path class="cls-5" d="M-1121.07-21.07c36.38,27.46,176.82,92.59,402.4,36.19C-472.46-46.43-227.06,64.12-223,66l.1,0c2.55,1.21,124.22,58.43,228.83,31.43"/></g></g></g><g id="OBJECTS"><path class="cls-6" d="M80.5,79.67c-1.83,2.86,4-7.18,12.27-10.09,6.32-2.22,12.19.74,13.1,1.18,8.44,4.11,12.2,14.22,10.75,22.18a22,22,0,0,1-4.53,9.41,45.22,45.22,0,0,1-15.58,12.88,29.4,29.4,0,0,0,8.16-2.45,39,39,0,0,0,13.64-12.28A41.57,41.57,0,0,0,125.7,78c.06-4,.08-9.21-3-14.61a15.55,15.55,0,0,0-10-8c-5.41-1.4-12.06.12-15.13,2-5.71,3.53-7.92,6-11.34,11.15A57.21,57.21,0,0,0,80.5,79.67Z"/><path class="cls-7" d="M126.87,66.39a28.3,28.3,0,0,0-7.56-10.58c-8.1-7.14-19.42-6.44-22.85-6.22-4.14.26-14,.87-21.51,8.57-1.66,1.7-7.06,7.22-7.39,15.79a21.69,21.69,0,0,0,3.36,12.44C75.12,92.88,81.69,94.92,85,96a29.79,29.79,0,0,0,10.51,1.32,37,37,0,0,0,7.8-1.32,37.34,37.34,0,0,1-8.06,3.2c-10.59,2.62-20.2.07-25.54-1.85A50.69,50.69,0,0,1,52.94,86.89,36.18,36.18,0,0,1,42.53,72.27c-1.14-3.08-4.33-13.21.33-24.19S57,31.81,61.18,29.76c10.6-5.17,21.21-4.47,26.21-4,3.9.34,9.66,1.83,17.14,5.71A43.08,43.08,0,0,1,121,46.4C126.8,55.66,126.87,66.39,126.87,66.39Z"/><path class="cls-7" d="M113.1,94.79s-4.85,2.35-10.42,4.7c-13,5.48-25.9,2.33-29.91,1.35-4.83-1.19-14.71-3.74-23.36-12.61A43.81,43.81,0,0,1,38.16,67.9c-.65-2.8-3.89-18.32,5.54-32.09,5.75-8.4,13.41-12,19.49-15A85.38,85.38,0,0,1,89.74,14.3C94,13.92,98,13.92,98,13.92c3.88,0,6.55.21,6.55.21a89.66,89.66,0,0,0-16-1.51A72.52,72.52,0,0,0,55,20.35c-5.55,2.85-14.6,7.5-21.84,17.81a51.34,51.34,0,0,0-9.25,33.78c1.63,18.12,12.65,29.19,15.8,32.26A52.73,52.73,0,0,0,65.38,118a42.74,42.74,0,0,0,23-1c8.83-3,14.12-8.39,17.47-11.76C109.56,101.49,113.1,94.79,113.1,94.79Z"/></g></g></svg>