<svg xmlns="http://www.w3.org/2000/svg" xmlns:xlink="http://www.w3.org/1999/xlink" viewBox="0 0 154.44 133.98"><defs><style>.cls-1,.cls-5{fill:none;}.cls-2{isolation:isolate;}.cls-3{clip-path:url(#clip-path);}.cls-4{opacity:0.31;mix-blend-mode:overlay;}.cls-5{stroke-miterlimit:10;stroke:url(#linear-gradient);}.cls-6{fill:#1c3c60;}.cls-7{fill:#73aeaf;}</style><clipPath id="clip-path"><rect class="cls-1" x="-864.05" y="-18.6" width="750" height="500"/></clipPath><linearGradient id="linear-gradient" x1="-1121.37" y1="41.84" x2="6.04" y2="41.84" gradientUnits="userSpaceOnUse"><stop offset="0" stop-color="#ed1c24"/><stop offset="0.01" stop-color="#ee2e36"/><stop offset="0.06" stop-color="#f3656a"/><stop offset="0.11" stop-color="#f79498"/><stop offset="0.16" stop-color="#fabbbd"/><stop offset="0.2" stop-color="#fcd9da"/><stop offset="0.25" stop-color="#feeeee"/><stop offset="0.29" stop-color="#fffbfb"/><stop offset="0.34" stop-color="#fff"/><stop offset="0.39" stop-color="#e6e6f2"/><stop offset="0.51" stop-color="#aeb0d5"/><stop offset="0.62" stop-color="#8082bd"/><stop offset="0.73" stop-color="#5d5faa"/><stop offset="0.83" stop-color="#43469d"/><stop offset="0.93" stop-color="#333695"/><stop offset="1" stop-color="#2e3192"/></linearGradient></defs><title>Logo</title><g class="cls-2"><g id="BACKGROUND"><g class="cls-3"><g class="cls-4"><path class="cls-5" d="M-1121.07-21.07c36.38,27.46,176.82,92.59,402.4,36.19C-472.46-46.43-227.06,64.12-223,66l.1,0c2.55,1.21,124.22,58.43,228.83,31.43"/></g></g></g><g id="OBJECTS"><path class="cls-6" d="M95.11,83.89a9,9,0,0,1-3.65.63c-4.49,0-7.21-2.81-7.21-7.11,0-4.66,3.23-7.47,7.55-7.47a8,8,0,0,1,3.44.63l-.57,2.05a6.91,6.91,0,0,0-2.76-.54c-2.88,0-5,1.8-5,5.2,0,3.11,1.83,5.1,4.93,5.1a7.2,7.2,0,0,0,2.82-.53Z"/><path class="cls-6" d="M106.21,81.94a5.72,5.72,0,0,0,2.62.73c1.13,0,1.64-.46,1.64-1.13s-.42-1.05-1.68-1.49c-2-.69-2.83-1.78-2.81-3,0-1.8,1.49-3.21,3.86-3.21a5.88,5.88,0,0,1,2.7.61l-.5,1.82a4.62,4.62,0,0,0-2.16-.58c-.92,0-1.43.44-1.43,1.07s.49,1,1.79,1.42c1.84.68,2.7,1.62,2.72,3.13,0,1.85-1.44,3.19-4.15,3.19a6.62,6.62,0,0,1-3.11-.71Z"/><path class="cls-6" d="M120,73.86c2.35,0,4.3,2,4.3,5.2,0,3.7-2.33,5.48-4.66,5.48a3.34,3.34,0,0,1-2.87-1.36h0v5.28h-2.58v-11c0-1.34,0-2.43-.08-3.4h2.27m.39,5.94a2.39,2.39,0,0,0,.09.71,2.33,2.33,0,0,0,2.26,1.81c1.64,0,2.61-1.37,2.61-3.38,0-1.8-.89-3.27-2.54-3.27a2.4,2.4,0,0,0-2.31,1.91,2.46,2.46,0,0,0-.11.65Z"/><path class="cls-6" d="M128.31,71.24a1.45,1.45,0,1,1-1.45-1.41A1.37,1.37,0,0,1,128.31,71.24Zm-2.75,13.07V74.09h2.6V84.31Z"/><path class="cls-6" d="M139.79,77.13c0-1.17,0-2.16-.09-3H142l.12,1.53h.07a3.69,3.69,0,0,1,3.25-1.76c1.78,0,3.63,1.16,3.63,4.39v6.06h-2.58V78.54c0-1.47-.55-2.58-2-2.58a2.17,2.17,0,0,0-2,1.51,2.77,2.77,0,0,0-.1.84v6h-2.6Z"/><path class="cls-6" d="M136,83.18v1.13l2.11,0c0-.6-.09-1.49-.09-2.41l-.13-3.66c0-2.23-.22-4.18-3.49-4.18a7.37,7.37,0,0,0-3.68.86l.58,1.66a5,5,0,0,1,2.67-.73c1.06,0,1.71.28,1.83,1.1a1.47,1.47,0,0,1-.12.75c-.49,1-2,.74-3.29,1.2a3,3,0,0,0-2.3,2.72c-.17,1.54,1.06,2.81,3.11,2.81.54,0,1.37,0,1.86,0l0-1.61a7.93,7.93,0,0,1-1.11,0c-1.11,0-1.88-.47-1.88-1,0-.34-.17-.78,1.13-1.28a24.17,24.17,0,0,0,2.66-.72l.08,2.72"/><path class="cls-6" d="M102.17,83.07V84.2l2.1,0c0-.61-.08-1.49-.08-2.41l-.13-3.67c0-2.22-.22-4.17-3.5-4.17a7.32,7.32,0,0,0-3.67.86l.57,1.65a5,5,0,0,1,2.68-.73c1.06,0,1.7.28,1.83,1.1a1.47,1.47,0,0,1-.12.75c-.49,1-2,.74-3.29,1.21a3,3,0,0,0-2.3,2.71c-.17,1.55,1,2.82,3.11,2.82.54,0,1.37,0,1.86,0l0-1.62a9.1,9.1,0,0,1-1.1,0c-1.12-.06-1.88-.48-1.88-1.06,0-.34-.18-.78,1.13-1.28a23.79,23.79,0,0,0,2.66-.71l.07,2.72"/><path class="cls-6" d="M47.53,67.78c-1.3,2,2.85-5.09,8.71-7.15a12.37,12.37,0,0,1,9.3.83c6,2.92,8.66,10.1,7.64,15.74A15.72,15.72,0,0,1,70,83.88,32.16,32.16,0,0,1,58.9,93a20.87,20.87,0,0,0,5.79-1.74,27.73,27.73,0,0,0,9.68-8.72,29.52,29.52,0,0,0,5.25-16c0-2.87.06-6.54-2.15-10.38a11,11,0,0,0-7.1-5.69A15.69,15.69,0,0,0,59.64,52a21.76,21.76,0,0,0-8,7.91A41.11,41.11,0,0,0,47.53,67.78Z"/><path class="cls-7" d="M80.45,58.36a20.16,20.16,0,0,0-5.36-7.52c-5.76-5.06-13.79-4.56-16.22-4.41-2.94.19-9.92.62-15.27,6.08a17,17,0,0,0-5.25,11.22,15.38,15.38,0,0,0,2.39,8.82c3,4.61,7.64,6.06,10,6.8a21.63,21.63,0,0,0,7.47.94,26.91,26.91,0,0,0,5.54-.94A26.58,26.58,0,0,1,58,81.62,31.59,31.59,0,0,1,39.9,80.3,35.86,35.86,0,0,1,28,72.91a25.7,25.7,0,0,1-7.39-10.38,23.74,23.74,0,0,1,.24-17.17c3.31-7.8,10-11.54,13-13,7.52-3.67,15.06-3.18,18.6-2.86,2.77.24,6.86,1.3,12.17,4A30.64,30.64,0,0,1,76.28,44.17,30.26,30.26,0,0,1,80.45,58.36Z"/><path class="cls-7" d="M70.67,78.52s-3.44,1.67-7.39,3.34c-9.23,3.89-18.39,1.65-21.23,1a33,33,0,0,1-16.58-9,31.11,31.11,0,0,1-8-14.43c-.46-2-2.76-13,3.93-22.78,4.09-6,9.53-8.55,13.84-10.61a60.24,60.24,0,0,1,18.84-4.65c3-.28,5.85-.28,5.85-.28,2.76,0,4.65.16,4.65.16a63.94,63.94,0,0,0-11.33-1.08,51.5,51.5,0,0,0-23.85,5.49C25.47,27.7,19,31,13.9,38.32a36.49,36.49,0,0,0-6.56,24,36.6,36.6,0,0,0,11.21,22.9A37.35,37.35,0,0,0,36.8,95a30.31,30.31,0,0,0,16.34-.72,31,31,0,0,0,12.4-8.35A38,38,0,0,0,70.67,78.52Z"/></g></g></svg>