<svg xmlns="http://www.w3.org/2000/svg" xmlns:xlink="http://www.w3.org/1999/xlink" viewBox="0 0 389.11 327.54"><defs><style>.cls-1,.cls-5{fill:none;}.cls-2{isolation:isolate;}.cls-3{clip-path:url(#clip-path);}.cls-4{opacity:0.31;mix-blend-mode:overlay;}.cls-5{stroke-miterlimit:10;stroke:url(#linear-gradient);}.cls-6{fill:#f0f0f0;}.cls-7{fill:#e0e0e0;}.cls-8{fill:#27debf;}.cls-9{opacity:0.2;}.cls-10,.cls-15,.cls-25,.cls-26{fill:#fff;}.cls-11{fill:#37474f;}.cls-12{fill:#263238;}.cls-13,.cls-16{fill:#455a64;}.cls-14{opacity:0.15;}.cls-15{opacity:0.7;}.cls-16,.cls-22{opacity:0.8;}.cls-17{fill:#ebebeb;}.cls-18,.cls-23,.cls-25{opacity:0.3;}.cls-19,.cls-26{opacity:0.4;}.cls-20{opacity:0.5;}.cls-21,.cls-22{fill:#fafafa;}.cls-24{opacity:0.1;}.cls-27{fill:#aaa9a9;}.cls-28{fill:#ffa8a7;}.cls-29{fill:#f5f5f5;}.cls-30{fill:#f28f8f;}</style><clipPath id="clip-path"><rect class="cls-1" x="-864.05" y="-18.6" width="750" height="500"/></clipPath><linearGradient id="linear-gradient" x1="-1121.37" y1="41.84" x2="6.04" y2="41.84" gradientUnits="userSpaceOnUse"><stop offset="0" stop-color="#ed1c24"/><stop offset="0.01" stop-color="#ee2e36"/><stop offset="0.06" stop-color="#f3656a"/><stop offset="0.11" stop-color="#f79498"/><stop offset="0.16" stop-color="#fabbbd"/><stop offset="0.2" stop-color="#fcd9da"/><stop offset="0.25" stop-color="#feeeee"/><stop offset="0.29" stop-color="#fffbfb"/><stop offset="0.34" stop-color="#fff"/><stop offset="0.39" stop-color="#e6e6f2"/><stop offset="0.51" stop-color="#aeb0d5"/><stop offset="0.62" stop-color="#8082bd"/><stop offset="0.73" stop-color="#5d5faa"/><stop offset="0.83" stop-color="#43469d"/><stop offset="0.93" stop-color="#333695"/><stop offset="1" stop-color="#2e3192"/></linearGradient></defs><title>Pic login</title><g class="cls-2"><g id="BACKGROUND"><g class="cls-3"><g class="cls-4"><path class="cls-5" d="M-1121.07-21.07c36.38,27.46,176.82,92.59,402.4,36.19C-472.46-46.43-227.06,64.12-223,66l.1,0c2.55,1.21,124.22,58.43,228.83,31.43"/></g></g></g><g id="OBJECTS"><ellipse id="Floor" class="cls-6" cx="189.93" cy="225.82" rx="146.43" ry="84.54"/><path id="Shadow" class="cls-7" d="M236.79,248.11a7.87,7.87,0,0,0-1.17-4.11h0a7.8,7.8,0,0,0-.5-.77l0,0c-.18-.23-.36-.46-.55-.67l-.05-.05a8.14,8.14,0,0,0-.6-.58l-.05,0a5.72,5.72,0,0,0-.65-.48l-.38-.21-.17-.08-.2-.09-.28-.09-.08,0a1.8,1.8,0,0,0-.32-.06h0a2,2,0,0,0-1.21.19h0c-3.34,1.68-22.62,13.94-31.49,19.47l-4.4,2.67a1,1,0,0,0-.32.31.1.1,0,0,0,0,.05l-.1.18a.74.74,0,0,0,0,.14.84.84,0,0,0,0,.17.43.43,0,0,0,0,.11l-.73.4-.65.35a25.46,25.46,0,0,0-5-3.71c-6.09-3.51-14.14-5.45-22.69-5.45s-16.61,1.94-22.69,5.45c-6.3,3.63-9.77,8.55-9.77,13.83s3.47,10.19,9.77,13.83c6.08,3.51,14.14,5.44,22.69,5.44s16.6-1.93,22.69-5.44c6.3-3.64,9.76-8.55,9.76-13.83a12.77,12.77,0,0,0-2.06-6.84l.58-.31a1.31,1.31,0,0,0,1.25.12h0c3-1.66,32.36-14.17,38.36-17.38h0A2.67,2.67,0,0,0,236.79,248.11ZM184.9,284c-5.25,3-12.32,4.71-19.91,4.71S150.32,287,145.07,284c-4.51-2.6-7-5.81-7-9s2.49-6.43,7-9c5.25-3,12.32-4.7,19.92-4.7s14.66,1.67,19.91,4.7c4.51,2.6,7,5.81,7,9S189.41,281.39,184.9,284Z"/><path id="Shadow-2" data-name="Shadow" class="cls-7" d="M241.28,173.82l-29.77-17.23a6.08,6.08,0,0,0-5.48,0L54.82,243.9c-1.51.87-1.51,2.28,0,3.16l29.77,17.22a6.06,6.06,0,0,0,5.47,0l56.67-32.72,8.71,5.07c4.61,2.66,12.09,2.66,16.7,0l26-14.88c4.61-2.66,4.61-7,0-9.64l-8.7-5.06L241.28,177C242.79,176.11,242.79,174.69,241.28,173.82Z"/><ellipse id="Shadow-3" data-name="Shadow" class="cls-7" cx="291.21" cy="238.49" rx="29.19" ry="16.85"/><g id="Plants"><path class="cls-8" d="M307.79,219.46c0-4-.78-11.23,2.56-18.06,2.42-5,6.76-9.76,10.79-9.28,3.76.44,4.1,6.22.51,10.17s-8.17,9.42-9.16,18.16l-2.59,6.48Z"/><g class="cls-9"><path d="M307.79,219.46c0-4-.78-11.23,2.56-18.06,2.42-5,6.76-9.76,10.79-9.28,3.76.44,4.1,6.22.51,10.17s-8.17,9.42-9.16,18.16l-2.59,6.48Z"/></g><path class="cls-10" d="M309.14,222.23a.28.28,0,0,0,.23-.28c-.46-11.23,3.2-20.56,10.57-27a.28.28,0,0,0,0-.38.27.27,0,0,0-.39,0c-7.5,6.52-11.23,16-10.76,27.4a.27.27,0,0,0,.28.27Z"/><path class="cls-8" d="M307.08,233.58a13.91,13.91,0,0,0,6.94,1.94c4.23.1,5.79-2.13,5.79-2.13s-2.15-3.66-4.64-4.44a23.31,23.31,0,0,1,7.58,2s2.53-.3,3-4.29c0,0-1.81-2.13-7-2.71a16.63,16.63,0,0,1,7.51-.64c.34.08,1.08-5.09,1.2-7.45s-.8-2.21-2.66-2.45-8,.28-9,1.42-1.11,4.58-1.11,4.58a6.7,6.7,0,0,1-1.3-3.5,6.5,6.5,0,0,0-3.81.6c-1.92,1-2.53,1.75-2.63,3.23a14.84,14.84,0,0,0,.37,5.4,11.36,11.36,0,0,1-1.66-5.28,26.46,26.46,0,0,0-1.79,3.74C303.07,225.74,304.05,231,307.08,233.58Z"/><path class="cls-10" d="M307.15,233.85a.28.28,0,0,0,.19-.18c2.4-7.38,13.73-17.1,18.05-18.55a.28.28,0,0,0,.18-.35.26.26,0,0,0-.35-.17c-4.41,1.48-16,11.38-18.4,18.9a.28.28,0,0,0,.17.35A.43.43,0,0,0,307.15,233.85Z"/></g><g id="Device"><g id="Monitor"><path class="cls-11" d="M172.15,234.12l22.37-12.94c2.3-1.33,3.46-3.07,3.46-4.82s0-3.11,0-3.11L176.94,201.3a4.93,4.93,0,0,1-2.23-3.86V169.86l-39.08,22.58V220a4.93,4.93,0,0,0,2.23,3.86l17.58,10.24C160.06,236.78,167.53,236.78,172.15,234.12Z"/><path class="cls-12" d="M145,224.91V228l-7.16-4.12a4.93,4.93,0,0,1-2.22-3.86V192.44l7.44-4.29c.16,1.89.32,3.84.48,5.74l-5.22,3v21.55a4.9,4.9,0,0,0,2.22,3.86Z"/><path class="cls-13" d="M138.33,218.47a4.92,4.92,0,0,0,2.22,3.86L155.44,231c4.61,2.66,12.09,2.66,16.7,0l22.39-12.94c4.61-2.66,4.61-7,0-9.64l-14.9-8.68a4.93,4.93,0,0,1-2.23-3.86V174.34l-39.07,22.58Z"/><path class="cls-14" d="M184.17,202.37h0l-4.54-2.61a4.93,4.93,0,0,1-2.23-3.86V174.34l-39.07,22.58v21.55a4.92,4.92,0,0,0,2.22,3.86L145,224.9Z"/><path class="cls-11" d="M198,213.25v3.11c0,1.75-1.15,3.49-3.46,4.82l-22.37,12.93a16.68,16.68,0,0,1-8,2V233a16.68,16.68,0,0,0,8-2l22.37-12.94C196.83,216.75,198,215,198,213.25Z"/><path class="cls-13" d="M75.58,248.23a6,6,0,0,0,5.4-.1L232.1,160.88a6.15,6.15,0,0,0,2.78-4.82V23.78a6,6,0,0,0-2.61-4.72,6,6,0,0,0-5.39.1L75.76,106.41A6.15,6.15,0,0,0,73,111.23V243.5A6,6,0,0,0,75.58,248.23Z"/><path class="cls-11" d="M81,248.12,232.1,160.87a6.13,6.13,0,0,0,2.79-4.82V23.78c0-1.78-1.25-2.5-2.79-1.61L81,109.42a6.15,6.15,0,0,0-2.78,4.82V246.52C78.2,248.29,79.44,249,81,248.12Z"/><path class="cls-8" d="M83.42,229V116a3.7,3.7,0,0,1,1.67-2.89L228,30.58c.92-.53,1.67-.1,1.67,1V144.61a3.69,3.69,0,0,1-1.67,2.9L85.09,230C84.16,230.54,83.42,230.11,83.42,229Z"/><path class="cls-15" d="M83.42,229V116a3.7,3.7,0,0,1,1.67-2.89L228,30.58c.92-.53,1.67-.1,1.67,1V144.61a3.69,3.69,0,0,1-1.67,2.9L85.09,230C84.16,230.54,83.42,230.11,83.42,229Z"/><path class="cls-8" d="M156.25,199.15a1.69,1.69,0,0,1-.83-.22,2.14,2.14,0,0,1-.93-2,6,6,0,0,1,2.77-4.79h0a1.9,1.9,0,0,1,3.09,1.78,6.06,6.06,0,0,1-2.77,4.8A2.74,2.74,0,0,1,156.25,199.15Zm2.34-6.75a2.05,2.05,0,0,0-1,.31h0a5.44,5.44,0,0,0-2.45,4.25,1.28,1.28,0,0,0,2.13,1.24,5.42,5.42,0,0,0,2.46-4.25,1.55,1.55,0,0,0-.61-1.42A1,1,0,0,0,158.59,192.4Z"/></g></g><g id="Window"><path class="cls-6" d="M254.48,51.85,107.31,136.73V245.2a1.88,1.88,0,0,0,2.81,1.63l2.62-1.51,139-80.15a6,6,0,0,0,2.74-4.75Z"/><path class="cls-7" d="M253.85,53V160.42a5.42,5.42,0,0,1-2.43,4.2l-139,80.15-2.63,1.51a1.13,1.13,0,0,1-.61.17,1.28,1.28,0,0,1-.87-.35,1.23,1.23,0,0,1-.38-.9V137.09L253.85,53m.63-1.1L107.31,136.73V245.2a1.88,1.88,0,0,0,1.88,1.88,1.78,1.78,0,0,0,.93-.25l2.62-1.51,139-80.15a6,6,0,0,0,2.74-4.75V51.85Z"/><polygon class="cls-16" points="250.99 49.84 103.81 134.71 107.31 136.73 254.48 51.85 250.99 49.84"/><path class="cls-17" d="M108.29,246.86a1.91,1.91,0,0,1-1-1.66V136.73l-3.5-2V242.58a2.69,2.69,0,0,0,0,.4,2.91,2.91,0,0,0,1.43,2.13l2.89,1.67.14.08Z"/><path class="cls-8" d="M103.81,134.75v-7.31a3,3,0,0,1,1.36-2.38L249.63,41.78a3,3,0,0,1,2.73,0l.75.44a3,3,0,0,1,1.37,2.37v7.33L107.31,136.77Z"/><path class="cls-18" d="M103.81,134.75v-7.31a3,3,0,0,1,1.36-2.38L249.63,41.78a3,3,0,0,1,2.73,0l.75.44a3,3,0,0,1,1.37,2.37v7.33L107.31,136.77Z"/><path class="cls-8" d="M107.31,129.46a3,3,0,0,1,1.36-2.38L253.12,43.8c.75-.44,1.36-.09,1.36.78v7.33L107.31,136.77Z"/><path class="cls-19" d="M107.31,129.46a3,3,0,0,1,1.36-2.38L253.12,43.8c.75-.44,1.36-.09,1.36.78v7.33L107.31,136.77Z"/><path class="cls-8" d="M107.7,128.1a2.9,2.9,0,0,0-.39,1.36v7.31l-3.5-2v-7.33a2.76,2.76,0,0,1,.4-1.34Z"/><path class="cls-20" d="M107.7,128.1a2.9,2.9,0,0,0-.39,1.36v7.31l-3.5-2v-7.33a2.76,2.76,0,0,1,.4-1.34Z"/><path class="cls-21" d="M248.06,51.58c0,.82.58,1.15,1.29.74a2.85,2.85,0,0,0,1.28-2.22c0-.82-.58-1.16-1.28-.75A2.85,2.85,0,0,0,248.06,51.58Z"/><path class="cls-21" d="M242.92,54.55c0,.81.58,1.15,1.29.74a2.84,2.84,0,0,0,1.28-2.23c0-.82-.57-1.15-1.28-.74A2.85,2.85,0,0,0,242.92,54.55Z"/><path class="cls-21" d="M237.78,57.51c0,.82.58,1.15,1.29.74A2.82,2.82,0,0,0,240.35,56c0-.82-.57-1.15-1.28-.74A2.83,2.83,0,0,0,237.78,57.51Z"/><path class="cls-21" d="M107.31,136.78V245.2a1.88,1.88,0,0,0,2.81,1.63l2.62-1.51,32.17-18.55V115.09l-37.6,21.68Z"/><polygon class="cls-21" points="147.47 116.92 147.47 222.23 251.4 162.24 251.4 56.93 147.47 116.92"/><path class="cls-8" d="M136.3,127.82l-24,13.86a1.77,1.77,0,0,0-.8,1.39v2.5c0,.51.36.72.8.46l24-13.86a1.79,1.79,0,0,0,.8-1.39v-2.5C137.1,127.77,136.74,127.56,136.3,127.82Z"/><path class="cls-22" d="M136.3,127.82l-24,13.86a1.77,1.77,0,0,0-.8,1.39v2.5c0,.51.36.72.8.46l24-13.86a1.79,1.79,0,0,0,.8-1.39v-2.5C137.1,127.77,136.74,127.56,136.3,127.82Z"/><path class="cls-13" d="M141.64,128.81l-.71-.68a3.17,3.17,0,0,0,.23-1.13,1.34,1.34,0,0,0-.53-1.21.83.83,0,0,0-.86,0,2.84,2.84,0,0,0-1.11,2.3,1.31,1.31,0,0,0,.53,1.21.7.7,0,0,0,.38.11,1,1,0,0,0,.48-.14,1.94,1.94,0,0,0,.62-.65l.58.56a.32.32,0,0,0,.2.08.28.28,0,0,0,.19-.48Zm-1.87,0a.3.3,0,0,1-.31,0,.87.87,0,0,1-.25-.73,2.34,2.34,0,0,1,.84-1.82.41.41,0,0,1,.2-.06.17.17,0,0,1,.1,0c.12.06.25.3.25.73A2.3,2.3,0,0,1,139.77,128.81Z"/><path class="cls-13" d="M112.09,153.36l-.53.31s-.06,0-.06,0v-1.46a.13.13,0,0,1,.06-.11l.53-.31s.06,0,.06,0v1.46A.15.15,0,0,1,112.09,153.36Z"/><path class="cls-13" d="M112.9,152.89l-.54.31s-.06,0-.06,0V151.7a.12.12,0,0,1,.06-.1l.54-.32a0,0,0,0,1,.06.05v1.45A.12.12,0,0,1,112.9,152.89Z"/><path class="cls-13" d="M113.71,152.43l-.54.31s-.06,0-.06,0v-1.46a.15.15,0,0,1,.06-.11l.54-.31s.05,0,.05,0v1.46A.14.14,0,0,1,113.71,152.43Z"/><path class="cls-13" d="M112.09,155.24l-.53.31s-.06,0-.06,0v-1.46a.13.13,0,0,1,.06-.11l.53-.31s.06,0,.06,0v1.46A.15.15,0,0,1,112.09,155.24Z"/><path class="cls-13" d="M112.9,154.77l-.54.31s-.06,0-.06,0v-1.46a.15.15,0,0,1,.06-.11l.54-.31s.06,0,.06.05v1.45A.15.15,0,0,1,112.9,154.77Z"/><path class="cls-13" d="M113.71,154.31l-.54.31s-.06,0-.06-.05v-1.45a.15.15,0,0,1,.06-.11l.54-.31s.05,0,.05,0v1.46A.14.14,0,0,1,113.71,154.31Z"/><path class="cls-13" d="M112.18,160.2l-.66-.4s0-.08,0-.12l.66-1.17c0-.06.08,0,.08,0v1.58C112.26,160.16,112.21,160.22,112.18,160.2Z"/><path class="cls-13" d="M111.9,159.31l.87-.5v.41l-.87.5c-.07.05-.13,0-.13-.13A.36.36,0,0,1,111.9,159.31Z"/><polygon class="cls-13" points="112.94 158.71 113.23 158.54 113.23 158.95 112.94 159.13 112.94 158.71"/><path class="cls-13" d="M114,158.28v1.53a.36.36,0,0,1-.13.28c-.07,0-.13,0-.13-.13v-1.31l-.37.21v-.42l.5-.29C114,158.11,114,158.17,114,158.28Z"/><path class="cls-13" d="M112.44,163.62a2.87,2.87,0,0,0-.92,2.46c.11.8.58.77.63,1.14,0,0,0,.05.06,0l.59-.33a.17.17,0,0,0,.06-.11,7.14,7.14,0,0,0,.67-2.25C113.53,163.65,113,163.21,112.44,163.62Z"/><path class="cls-13" d="M112.79,167.87l-.57.33s-.07,0-.07-.06v-.52a.16.16,0,0,1,.07-.13l.57-.33s.07,0,.07.05v.52A.16.16,0,0,1,112.79,167.87Z"/><path class="cls-13" d="M112.57,151.32a3.48,3.48,0,0,0-1,2.18,2.35,2.35,0,0,0,.15,1.19l-.19,1c0,.08,0,.12.08.07l.57-.62a.91.91,0,0,0,.83-.25,3.46,3.46,0,0,0,1-2.19C114.15,151.31,113.43,150.61,112.57,151.32Zm.21,3.26c-.53.3-1-.11-1-.92a2.51,2.51,0,0,1,1-2c.53-.31,1,.11,1,.92A2.54,2.54,0,0,1,112.78,154.58Z"/><path class="cls-13" d="M112.57,170.51a3.5,3.5,0,0,0-1,2.18,2.33,2.33,0,0,0,.15,1.19l-.19,1c0,.08,0,.13.08.07l.57-.62a.88.88,0,0,0,.83-.25,3.46,3.46,0,0,0,1-2.18C114.15,170.51,113.43,169.81,112.57,170.51Zm.21,3.26c-.53.3-1-.11-1-.92a2.54,2.54,0,0,1,1-2c.53-.3,1,.11,1,.92A2.53,2.53,0,0,1,112.78,173.77Z"/><path class="cls-13" d="M113.38,177.54a1.33,1.33,0,0,1-.5,1.07c-.28.16-.51-.06-.51-.49a1.33,1.33,0,0,1,.51-1.06C113.16,176.89,113.38,177.11,113.38,177.54Z"/><path class="cls-13" d="M114.25,177.69a.89.89,0,0,1-.34.72c-.18.1-.33,0-.33-.33a.91.91,0,0,1,.33-.71C114.1,177.26,114.25,177.41,114.25,177.69Z"/><path class="cls-13" d="M113.47,180.6l-1.19.69v-1.51a1,1,0,0,1,.43-.82l.33-.19c.24-.14.43,0,.43.33Z"/><path class="cls-13" d="M114,178.58l-.33.19v1.74l.62-.36V178.8C114.26,178.59,114.13,178.49,114,178.58Z"/><path class="cls-13" d="M111.51,179.28c0,.29.15.43.33.32a.86.86,0,0,0,.34-.71c0-.29-.15-.43-.34-.32A.88.88,0,0,0,111.51,179.28Z"/><path class="cls-13" d="M111.79,179.84l.33-.19v1.74l-.62.36v-1.36A.69.69,0,0,1,111.79,179.84Z"/><path class="cls-7" d="M117.33,150l14-8.11c.37-.22.68-.07.68.34a1.49,1.49,0,0,1-.68,1.14l-14,8.11c-.38.22-.68.06-.68-.35A1.45,1.45,0,0,1,117.33,150Z"/><path class="cls-7" d="M117.33,156.56l14-8.11c.37-.22.68-.06.68.35a1.49,1.49,0,0,1-.68,1.13l-14,8.11c-.38.22-.68.06-.68-.35A1.46,1.46,0,0,1,117.33,156.56Z"/><path class="cls-7" d="M117.33,163.17l14-8.11c.37-.22.68-.06.68.35a1.47,1.47,0,0,1-.68,1.13l-14,8.11c-.38.22-.68.07-.68-.34A1.47,1.47,0,0,1,117.33,163.17Z"/><path class="cls-7" d="M117.33,169.78l14-8.11c.37-.22.68-.06.68.35a1.46,1.46,0,0,1-.68,1.13l-14,8.11c-.38.22-.68.07-.68-.34A1.47,1.47,0,0,1,117.33,169.78Z"/><path class="cls-7" d="M117.33,176.39l14-8.11c.37-.22.68-.06.68.35a1.49,1.49,0,0,1-.68,1.14l-14,8.1c-.38.22-.68.07-.68-.34A1.47,1.47,0,0,1,117.33,176.39Z"/><path class="cls-13" d="M119.9,181.79l14-8.11c.37-.22.68-.06.68.35a1.47,1.47,0,0,1-.68,1.13l-14,8.11c-.38.22-.68.06-.68-.34A1.47,1.47,0,0,1,119.9,181.79Z"/><path class="cls-7" d="M119.9,186.25l14-8.1c.37-.22.68-.07.68.34a1.49,1.49,0,0,1-.68,1.14l-14,8.11c-.38.22-.68.06-.68-.35A1.47,1.47,0,0,1,119.9,186.25Z"/><path class="cls-7" d="M119.9,190.72l14-8.11c.37-.22.68-.06.68.35a1.46,1.46,0,0,1-.68,1.13l-14,8.11c-.38.22-.68.07-.68-.34A1.47,1.47,0,0,1,119.9,190.72Z"/><path class="cls-7" d="M122.63,193.56l14.05-8.11c.38-.22.68-.06.68.35a1.45,1.45,0,0,1-.68,1.13L122.63,195c-.37.22-.68.07-.68-.34A1.49,1.49,0,0,1,122.63,193.56Z"/><path class="cls-13" d="M119.35,197.4l1.14-2c.05-.08.05-.18,0-.21l-1.14-.69s-.13.07-.13.18v2.71C119.22,197.48,119.3,197.5,119.35,197.4Z"/><path class="cls-7" d="M122.63,198l14.05-8.11c.38-.22.68-.06.68.35a1.43,1.43,0,0,1-.68,1.13l-14.05,8.11c-.37.22-.68.07-.68-.34A1.49,1.49,0,0,1,122.63,198Z"/><path class="cls-13" d="M119.35,201.85l1.14-2c.05-.08.05-.18,0-.21l-1.14-.69s-.13.07-.13.18v2.71C119.22,201.93,119.3,202,119.35,201.85Z"/><path class="cls-7" d="M122.63,202.46l14.05-8.11c.38-.22.68-.06.68.35a1.43,1.43,0,0,1-.68,1.13l-14.05,8.11c-.37.22-.68.07-.68-.34A1.49,1.49,0,0,1,122.63,202.46Z"/><path class="cls-13" d="M119.35,206.3l1.14-2c.05-.08.05-.18,0-.21l-1.14-.69s-.13.07-.13.18v2.71C119.22,206.38,119.3,206.4,119.35,206.3Z"/><path class="cls-7" d="M122.63,206.91l14.05-8.11c.38-.22.68-.06.68.35a1.43,1.43,0,0,1-.68,1.13l-14.05,8.11c-.37.22-.68.07-.68-.34A1.49,1.49,0,0,1,122.63,206.91Z"/><path class="cls-13" d="M119.35,210.75l1.14-2c.05-.08.05-.18,0-.21l-1.14-.69s-.13.07-.13.18v2.71C119.22,210.83,119.3,210.85,119.35,210.75Z"/><path class="cls-7" d="M122.63,211.36l14.05-8.11c.38-.22.68-.06.68.35a1.43,1.43,0,0,1-.68,1.13l-14.05,8.11c-.37.22-.68.07-.68-.34A1.49,1.49,0,0,1,122.63,211.36Z"/><path class="cls-13" d="M119.35,215.2l1.14-2c.05-.08.05-.18,0-.21l-1.14-.69s-.13.07-.13.18v2.71C119.22,215.28,119.3,215.3,119.35,215.2Z"/><path class="cls-7" d="M122.63,215.81l14.05-8.11c.38-.22.68-.06.68.35a1.43,1.43,0,0,1-.68,1.13l-14.05,8.11c-.37.22-.68.07-.68-.34A1.49,1.49,0,0,1,122.63,215.81Z"/><path class="cls-13" d="M119.35,219.65l1.14-2c.05-.08.05-.18,0-.21l-1.14-.69s-.13.07-.13.18v2.71C119.22,219.73,119.3,219.75,119.35,219.65Z"/><path class="cls-7" d="M122.63,220.26l14.05-8.11c.38-.22.68-.06.68.35a1.43,1.43,0,0,1-.68,1.13l-14.05,8.11c-.37.22-.68.07-.68-.34A1.49,1.49,0,0,1,122.63,220.26Z"/><path class="cls-13" d="M119.35,224.1l1.14-2c.05-.08.05-.18,0-.2l-1.14-.7s-.13.07-.13.18v2.71C119.22,224.18,119.3,224.2,119.35,224.1Z"/><path class="cls-7" d="M122.63,224.71l14.05-8.11c.38-.22.68-.06.68.35a1.43,1.43,0,0,1-.68,1.13l-14.05,8.11c-.37.22-.68.07-.68-.34A1.49,1.49,0,0,1,122.63,224.71Z"/><path class="cls-13" d="M119.35,228.55l1.14-2c.05-.08.05-.18,0-.2l-1.14-.7s-.13.07-.13.18v2.71C119.22,228.64,119.3,228.65,119.35,228.55Z"/><path class="cls-6" d="M150.73,131.37l46.16-26.65a1.52,1.52,0,0,0,.69-1.19V91.76c0-.43-.31-.61-.69-.39L150.73,118a1.52,1.52,0,0,0-.69,1.19V131C150,131.41,150.35,131.59,150.73,131.37Z"/><path class="cls-13" d="M154.75,123.06a0,0,0,0,0,0,0l.3-1.26-.42.24h0s0,0,0,0v-.22a.07.07,0,0,1,0,0s0,0,0,0l.67-.39a0,0,0,0,1,0,0,0,0,0,0,1,0,0v.21s0,.06,0,.12l-.3,1.27s0,0,0,0,0,0,0,0l-.19.11h0A0,0,0,0,1,154.75,123.06Z"/><path class="cls-13" d="M155.87,120.93a.29.29,0,0,1,.19-.05.17.17,0,0,1,.12.05.42.42,0,0,1,.08.15,1.23,1.23,0,0,1,0,.2,1.21,1.21,0,0,1,0,.19,1.27,1.27,0,0,1,0,.2,1.94,1.94,0,0,1,0,.24,2.09,2.09,0,0,1-.08.23.82.82,0,0,1-.12.2.9.9,0,0,1-.19.15.38.38,0,0,1-.18.06.17.17,0,0,1-.12-.06.27.27,0,0,1-.08-.14q0-.09,0-.21v-.38l0-.24a.78.78,0,0,1,.08-.23.67.67,0,0,1,.12-.2A.55.55,0,0,1,155.87,120.93Zm.15.88a2.28,2.28,0,0,0,0-.37.28.28,0,0,0,0-.09.14.14,0,0,0,0-.07l-.05,0a.12.12,0,0,0-.07,0l-.07.06a.2.2,0,0,0,0,.08l0,.09s0,.07,0,.11V122s0,.07,0,.09l0,.07,0,0a.07.07,0,0,0,.07,0,.11.11,0,0,0,.07-.06A.22.22,0,0,0,156,122a.29.29,0,0,0,0-.09A.34.34,0,0,0,156,121.81Z"/><path class="cls-13" d="M156.85,120.69v.16c0,.05,0,.09,0,.13a.34.34,0,0,1,0,.12.41.41,0,0,1-.07.11.39.39,0,0,1-.1.08.16.16,0,0,1-.09,0,.09.09,0,0,1-.07,0,.16.16,0,0,1,0-.07s0-.07,0-.11v-.17s0-.08,0-.13a.56.56,0,0,1,0-.12.61.61,0,0,1,.07-.1l.09-.08.1,0a.09.09,0,0,1,.07,0s0,0,0,.07S156.84,120.65,156.85,120.69Zm.35-.46a.08.08,0,0,1,0,0s0,0,0,0l.11-.06h0s0,0,0,0h0v0l-.69,1.8,0,0,0,0-.12.07h0s0,0,0,0h0Zm-.63.77s0,.07,0,.08,0,0,0,0a.08.08,0,0,0,0,0,.22.22,0,0,0,0-.09.38.38,0,0,0,0-.15s0-.06,0-.07,0,0,0,0a.1.1,0,0,0,0,0,.22.22,0,0,0,0,.09A.33.33,0,0,0,156.57,121Zm.93.07v.16s0,.09,0,.13a.34.34,0,0,1,0,.12.41.41,0,0,1-.07.11l-.09.08-.1,0a.09.09,0,0,1-.07,0,.21.21,0,0,1,0-.07.37.37,0,0,1,0-.11.25.25,0,0,1,0-.08.31.31,0,0,1,0-.09.49.49,0,0,1,0-.12s0-.09,0-.13a.61.61,0,0,1,.07-.1.39.39,0,0,1,.1-.08.16.16,0,0,1,.09,0,.09.09,0,0,1,.07,0s0,0,0,.07S157.49,121,157.5,121.07Zm-.28.31a.54.54,0,0,0,0,.08,0,0,0,0,0,.05,0,.1.1,0,0,0,0,0,.22.22,0,0,0,0-.09.33.33,0,0,0,0-.14s0-.07,0-.08,0,0,0,0a.12.12,0,0,0-.05.05s0,0,0,.09Z"/><path class="cls-13" d="M154.75,119.44l-.47-.72a9.56,9.56,0,0,0-1.09,3l.75,0A6.55,6.55,0,0,1,154.75,119.44Z"/><path class="cls-13" d="M156.05,118v-1.21a5.31,5.31,0,0,0-1.77,1.91l.47.72A3.93,3.93,0,0,1,156.05,118Z"/><path class="cls-13" d="M153.83,122.74a6.07,6.07,0,0,1,.11-1.12l-.75,0a7.91,7.91,0,0,0-.15,1.52,5.58,5.58,0,0,0,.15,1.35l.75-.81A4.22,4.22,0,0,1,153.83,122.74Z"/><path class="cls-8" d="M158.92,118.36a2.5,2.5,0,0,0-1.09-1.68,1.78,1.78,0,0,0-1.78.13V118a1.3,1.3,0,0,1,1.31-.09,1.78,1.78,0,0,1,.81,1.24,4.31,4.31,0,0,1,.11,1,6.16,6.16,0,0,1-.11,1.12,6.64,6.64,0,0,1-.81,2.18,3.83,3.83,0,0,1-1.31,1.41,1.29,1.29,0,0,1-1.3.1,1.83,1.83,0,0,1-.81-1.25l-.75.81a2.53,2.53,0,0,0,1.09,1.69,1.76,1.76,0,0,0,1.77-.14,5.17,5.17,0,0,0,1.78-1.91,9.46,9.46,0,0,0,1.09-3,7.91,7.91,0,0,0,.15-1.52A5.58,5.58,0,0,0,158.92,118.36Z"/><path class="cls-13" d="M163.57,115.05l14.05-8.11c.38-.22.68-.07.68.34a1.47,1.47,0,0,1-.68,1.14l-14.05,8.11c-.37.22-.68.06-.68-.35A1.46,1.46,0,0,1,163.57,115.05Z"/><path class="cls-7" d="M163.57,118l24.33-14c.37-.22.68-.06.68.34a1.49,1.49,0,0,1-.68,1.14l-24.33,14c-.37.22-.68.06-.68-.35A1.46,1.46,0,0,1,163.57,118Z"/><path class="cls-6" d="M200.82,102.44,247,75.79a1.52,1.52,0,0,0,.69-1.19V62.84c0-.44-.31-.62-.69-.4L200.82,89.09a1.51,1.51,0,0,0-.68,1.18v11.78C200.14,102.48,200.44,102.66,200.82,102.44Z"/><path class="cls-13" d="M205.07,93.06a.69.69,0,0,1,0-.25.85.85,0,0,1,.09-.22.83.83,0,0,1,.13-.18.58.58,0,0,1,.15-.13.37.37,0,0,1,.16,0,.28.28,0,0,1,.13,0,.19.19,0,0,1,.09.12.56.56,0,0,1,0,.2v.12l0,.12,0,.1s0,.07,0,.11l-.26.72,0,0s0,0,0,0l-.22.13s0,0,0,0,0,0,0,0h0v0l.18-.49a.32.32,0,0,1-.13,0,.19.19,0,0,1-.11,0,.23.23,0,0,1-.08-.11A.54.54,0,0,1,205.07,93.06Zm.56-.33a.15.15,0,0,0,0-.07l0,0h-.05l-.06,0,0,0-.05.07a.3.3,0,0,0,0,.08s0,.06,0,.09,0,0,0,.07a.08.08,0,0,0,0,0h.05l0,0,.06,0,.05-.07,0-.08A.28.28,0,0,0,205.63,92.73Z"/><path class="cls-13" d="M206.42,91.74a.38.38,0,0,1,.18-.06.2.2,0,0,1,.13.06.26.26,0,0,1,.07.14.66.66,0,0,1,0,.21c0,.06,0,.12,0,.19s0,.13,0,.19a1,1,0,0,1,0,.24.88.88,0,0,1-.07.23.9.9,0,0,1-.31.36.35.35,0,0,1-.18,0,.17.17,0,0,1-.12,0,.31.31,0,0,1-.08-.15l0-.2v-.39l0-.24a.9.9,0,0,1,.08-.23.82.82,0,0,1,.12-.2A.65.65,0,0,1,206.42,91.74Zm.15.87a2.16,2.16,0,0,0,0-.36.22.22,0,0,0,0-.09.14.14,0,0,0,0-.07l0,0-.07,0a.13.13,0,0,0-.07.06.25.25,0,0,0,0,.07l0,.1s0,.07,0,.1v.37s0,.06,0,.09a.16.16,0,0,0,0,.06s0,0,0,0a.11.11,0,0,0,.07,0l.07-.06a.22.22,0,0,0,0-.08.29.29,0,0,0,0-.09A.41.41,0,0,0,206.57,92.61Z"/><path class="cls-13" d="M207.39,91.5a.43.43,0,0,1,0,.16.53.53,0,0,1,0,.13.56.56,0,0,1,0,.12l-.07.11-.1.08a.19.19,0,0,1-.09,0,.09.09,0,0,1-.07,0,.16.16,0,0,1,0-.07s0-.07,0-.11v-.17s0-.09,0-.13a.56.56,0,0,1,0-.12.36.36,0,0,1,.07-.1.23.23,0,0,1,.09-.08l.1,0,.07,0a.59.59,0,0,1,0,.08A.34.34,0,0,1,207.39,91.5Zm.35-.46,0,0s0,0,0,0l.12-.07h0s0,0,0,0h0l-.69,1.81,0,0s0,0,0,0l-.11.07h0v0h0v0Zm-.62.77a.17.17,0,0,0,0,.08s0,0,0,0a.12.12,0,0,0,.05,0s0-.06,0-.1V91.6a.56.56,0,0,0,0-.07s0,0-.05,0a.09.09,0,0,0,0,.06.22.22,0,0,0,0,.09A.33.33,0,0,0,207.12,91.81Zm.93.07V92s0,.09,0,.13a.56.56,0,0,1,0,.12l-.07.11-.09.08-.1,0a.09.09,0,0,1-.07,0,.16.16,0,0,1,0-.07s0-.07,0-.11v-.17s0-.09,0-.13a.56.56,0,0,1,0-.12.36.36,0,0,1,.07-.1.39.39,0,0,1,.1-.08.16.16,0,0,1,.09,0l.07,0a.2.2,0,0,1,0,.08S208,91.84,208.05,91.88Zm-.28.31a.17.17,0,0,0,0,.08s0,0,.05,0a.1.1,0,0,0,0,0,.31.31,0,0,0,0-.1V92s0-.06,0-.07,0,0,0,0,0,0-.05.06a.22.22,0,0,0,0,.09A.33.33,0,0,0,207.77,92.19Z"/><path class="cls-13" d="M206.56,88.85V87.64a5.31,5.31,0,0,0-1.77,1.91l.47.72A3.84,3.84,0,0,1,206.56,88.85Z"/><path class="cls-8" d="M209.43,89.19a2.48,2.48,0,0,0-1.1-1.68,1.76,1.76,0,0,0-1.77.13v1.21a1.3,1.3,0,0,1,1.31-.09,1.81,1.81,0,0,1,.81,1.24,4.31,4.31,0,0,1,.11,1,6.16,6.16,0,0,1-.11,1.12,6.87,6.87,0,0,1-.81,2.18,3.91,3.91,0,0,1-1.31,1.41,1.29,1.29,0,0,1-1.3.1,1.83,1.83,0,0,1-.81-1.25,3.75,3.75,0,0,1-.11-1,5.32,5.32,0,0,1,.11-1.12,6.55,6.55,0,0,1,.81-2.18l-.47-.72a9.16,9.16,0,0,0-1.09,3,7.91,7.91,0,0,0-.15,1.52,5.58,5.58,0,0,0,.15,1.35,2.46,2.46,0,0,0,1.09,1.69,1.76,1.76,0,0,0,1.77-.14A5.15,5.15,0,0,0,208.33,95h0a9.23,9.23,0,0,0,1.1-3,8.79,8.79,0,0,0,.15-1.52A6.12,6.12,0,0,0,209.43,89.19Z"/><path class="cls-13" d="M214.07,85.88l14.05-8.11c.37-.22.68-.07.68.34a1.49,1.49,0,0,1-.68,1.14l-14.05,8.11c-.38.22-.68.06-.68-.35A1.45,1.45,0,0,1,214.07,85.88Z"/><path class="cls-7" d="M214.07,88.87l24.32-14c.38-.22.69-.06.69.35a1.46,1.46,0,0,1-.69,1.13l-24.32,14c-.38.22-.68.06-.68-.35A1.43,1.43,0,0,1,214.07,88.87Z"/><path class="cls-13" d="M155.43,134.59l9.85-5.7c.38-.22.69-.06.69.35a1.46,1.46,0,0,1-.69,1.13l-9.85,5.71c-.38.22-.68.06-.68-.35A1.47,1.47,0,0,1,155.43,134.59Z"/><path class="cls-7" d="M247.33,85.22h0m-.29.17v75.24a.92.92,0,0,1-.37.64l-96,55.42V141.45a.87.87,0,0,1,.37-.64l1.2-.69a2.16,2.16,0,0,0,1-1.74V134a.91.91,0,0,1,.36-.64l13.79-7.95v4a1,1,0,0,0,1,1.12,1.35,1.35,0,0,0,.62-.17l78-45m-79.35,39.88h0m79.6-40.67a.67.67,0,0,0-.31.09l-78.27,45.19a.64.64,0,0,1-.3.09c-.23,0-.38-.18-.38-.49v-4.35c0-.31-.16-.49-.38-.49a.59.59,0,0,0-.31.1l-14,8.11a1.49,1.49,0,0,0-.69,1.18v4.35a1.51,1.51,0,0,1-.68,1.19l-1.2.69a1.52,1.52,0,0,0-.69,1.19V217c0,.31.16.49.38.49a.64.64,0,0,0,.31-.09L247,161.82a1.52,1.52,0,0,0,.69-1.19V85.08c0-.31-.16-.48-.38-.48Z"/><path class="cls-7" d="M156.23,144.73a.63.63,0,0,1-.33-.09.78.78,0,0,1-.36-.71v-2.87a1.83,1.83,0,0,1,.84-1.46l7.64-4.4a.73.73,0,0,1,1.16.67v2.87a1.84,1.84,0,0,1-.85,1.45l-7.63,4.41A1,1,0,0,1,156.23,144.73Zm.47-4.58a1.19,1.19,0,0,0-.53.91v2.87c0,.11,0,.16.05.17a.33.33,0,0,0,.16,0l7.64-4.4a1.2,1.2,0,0,0,.52-.91v-2.87a.27.27,0,0,0,0-.17s-.07,0-.17.05Z"/><path class="cls-7" d="M157.15,141.33l5-2.89c.25-.14.45,0,.45.23a1,1,0,0,1-.45.76l-5,2.89c-.25.14-.45,0-.45-.23A1,1,0,0,1,157.15,141.33Z"/><path class="cls-13" d="M163.28,138l.42.58s0,0,.06,0l.41-1.06c0-.06,0-.1,0-.08l-.82.47A.1.1,0,0,0,163.28,138Z"/><path class="cls-8" d="M155.18,172.53c.37-.22.66,0,.66.38a1.44,1.44,0,0,1-.66,1.14c-.36.21-.66,0-.66-.38A1.47,1.47,0,0,1,155.18,172.53Z"/><path class="cls-8" d="M160.32,166.59c.37-.21.66,0,.66.38a1.46,1.46,0,0,1-.66,1.15c-.36.21-.66,0-.66-.38A1.47,1.47,0,0,1,160.32,166.59Z"/><path class="cls-8" d="M165.46,163.63c.36-.21.66,0,.66.38a1.47,1.47,0,0,1-.66,1.14c-.37.21-.66,0-.66-.38A1.44,1.44,0,0,1,165.46,163.63Z"/><path class="cls-8" d="M170.6,162c.36-.21.66,0,.66.38a1.48,1.48,0,0,1-.66,1.15c-.37.21-.66,0-.66-.38A1.44,1.44,0,0,1,170.6,162Z"/><path class="cls-8" d="M175.74,156.62c.37-.21.66,0,.66.38a1.44,1.44,0,0,1-.66,1.14c-.36.22-.66,0-.66-.38A1.47,1.47,0,0,1,175.74,156.62Z"/><path class="cls-8" d="M180.87,154.73c.37-.21.66,0,.66.38a1.44,1.44,0,0,1-.66,1.14c-.36.21-.66,0-.66-.38A1.47,1.47,0,0,1,180.87,154.73Z"/><path class="cls-8" d="M186,148.79c.36-.21.66,0,.66.38a1.44,1.44,0,0,1-.66,1.15c-.36.21-.66,0-.66-.38A1.48,1.48,0,0,1,186,148.79Z"/><path class="cls-8" d="M191.15,147.31c.36-.21.66,0,.66.38a1.47,1.47,0,0,1-.66,1.14c-.37.22-.66,0-.66-.38A1.44,1.44,0,0,1,191.15,147.31Z"/><path class="cls-8" d="M196.29,131c.36-.21.66,0,.66.39a1.47,1.47,0,0,1-.66,1.14c-.37.21-.66,0-.66-.38A1.47,1.47,0,0,1,196.29,131Z"/><path class="cls-8" d="M201.43,139.89c.36-.21.66,0,.66.39a1.47,1.47,0,0,1-.66,1.14c-.37.21-.66,0-.66-.38A1.46,1.46,0,0,1,201.43,139.89Z"/><path class="cls-8" d="M206.56,139.89c.37-.21.66,0,.66.39a1.44,1.44,0,0,1-.66,1.14c-.36.21-.66,0-.66-.38A1.48,1.48,0,0,1,206.56,139.89Z"/><path class="cls-8" d="M211.7,139.89c.37-.21.66,0,.66.39a1.44,1.44,0,0,1-.66,1.14c-.36.21-.66,0-.66-.38A1.48,1.48,0,0,1,211.7,139.89Z"/><path class="cls-8" d="M216.84,131c.36-.21.66,0,.66.39a1.47,1.47,0,0,1-.66,1.14c-.37.21-.66,0-.66-.38A1.47,1.47,0,0,1,216.84,131Z"/><path class="cls-8" d="M222,129.29c.36-.21.66,0,.66.38a1.47,1.47,0,0,1-.66,1.14c-.37.22-.66,0-.66-.38A1.44,1.44,0,0,1,222,129.29Z"/><path class="cls-8" d="M227.13,122.1c.37-.22.66,0,.66.38a1.44,1.44,0,0,1-.66,1.14c-.36.21-.66,0-.66-.38A1.47,1.47,0,0,1,227.13,122.1Z"/><ellipse class="cls-8" cx="232.25" cy="122.86" rx="0.93" ry="0.54" transform="translate(9.74 262.58) rotate(-60)"/><ellipse class="cls-8" cx="237.39" cy="122.86" rx="0.93" ry="0.54" transform="translate(12.31 267.03) rotate(-60)"/><path class="cls-8" d="M242.53,119.13c.36-.21.66,0,.66.38a1.47,1.47,0,0,1-.66,1.14c-.36.21-.66,0-.66-.38A1.44,1.44,0,0,1,242.53,119.13Z"/><path class="cls-8" d="M155.17,173.45a.13.13,0,0,1-.1,0,.15.15,0,0,1,0-.22l5.19-6s0,0,0,0l5.1-2.95,5.13-1.66,5.11-5.32.06,0,5.1-1.88,5.11-5.9.08,0,5.05-1.46,5.12-16.23a.16.16,0,0,1,.13-.11.14.14,0,0,1,.15.08l5.1,8.82h10.09l5.09-8.82a.13.13,0,0,1,.09-.07l5.09-1.69,5.11-7.15a.14.14,0,0,1,.13-.07h10.23l5.1-3a.18.18,0,0,1,.22.06.17.17,0,0,1-.06.22l-5.14,3a.11.11,0,0,1-.08,0H227.2l-5.09,7.12a.16.16,0,0,1-.08.06L217,131.89l-5.11,8.85a.17.17,0,0,1-.14.07H201.42a.17.17,0,0,1-.13-.07l-5-8.59-5,16a.16.16,0,0,1-.11.1l-5.09,1.47-5.11,5.9-.06,0-5.11,1.88-5.11,5.31s0,0-.06,0l-5.14,1.67-5,2.92-5.17,5.94A.18.18,0,0,1,155.17,173.45Z"/><path class="cls-7" d="M155.18,176.57a.32.32,0,0,1-.27-.16A.31.31,0,0,1,155,176l87.35-50.43a.3.3,0,0,1,.43.12.31.31,0,0,1-.11.43l-87.35,50.43A.29.29,0,0,1,155.18,176.57Z"/><path class="cls-8" d="M155.18,169.56c.37-.21.66,0,.66.38a1.44,1.44,0,0,1-.66,1.14c-.36.21-.66,0-.66-.38A1.47,1.47,0,0,1,155.18,169.56Z"/><path class="cls-8" d="M160.32,160.66c.37-.21.66,0,.66.38a1.44,1.44,0,0,1-.66,1.14c-.36.21-.66,0-.66-.38A1.47,1.47,0,0,1,160.32,160.66Z"/><ellipse class="cls-8" cx="165.46" cy="160.31" rx="0.93" ry="0.54" transform="translate(-56.1 223.46) rotate(-60)"/><path class="cls-8" d="M170.6,148.79c.36-.21.66,0,.66.38a1.47,1.47,0,0,1-.66,1.15c-.37.21-.66,0-.66-.38A1.46,1.46,0,0,1,170.6,148.79Z"/><path class="cls-8" d="M175.74,151.76c.37-.21.66,0,.66.38a1.44,1.44,0,0,1-.66,1.14c-.36.22-.66,0-.66-.38A1.47,1.47,0,0,1,175.74,151.76Z"/><path class="cls-8" d="M180.87,150.28c.37-.21.66,0,.66.38a1.44,1.44,0,0,1-.66,1.14c-.36.21-.66,0-.66-.38A1.47,1.47,0,0,1,180.87,150.28Z"/><path class="cls-8" d="M186,145.83c.36-.21.66,0,.66.38a1.44,1.44,0,0,1-.66,1.14c-.36.21-.66,0-.66-.38A1.47,1.47,0,0,1,186,145.83Z"/><path class="cls-8" d="M191.15,139.89c.36-.21.66,0,.66.39a1.47,1.47,0,0,1-.66,1.14c-.37.21-.66,0-.66-.38A1.46,1.46,0,0,1,191.15,139.89Z"/><path class="cls-8" d="M196.29,138.41c.36-.21.66,0,.66.38a1.48,1.48,0,0,1-.66,1.15c-.37.21-.66,0-.66-.39A1.44,1.44,0,0,1,196.29,138.41Z"/><path class="cls-8" d="M201.43,134c.36-.21.66,0,.66.38a1.48,1.48,0,0,1-.66,1.15c-.37.21-.67,0-.67-.39A1.45,1.45,0,0,1,201.43,134Z"/><path class="cls-8" d="M206.56,134c.37-.21.66,0,.66.38a1.46,1.46,0,0,1-.66,1.15c-.36.21-.66,0-.66-.39A1.47,1.47,0,0,1,206.56,134Z"/><path class="cls-8" d="M211.7,122.1c.37-.21.66,0,.66.38a1.44,1.44,0,0,1-.66,1.14c-.36.21-.66,0-.66-.38A1.47,1.47,0,0,1,211.7,122.1Z"/><path class="cls-8" d="M216.84,128c.36-.21.66,0,.66.38a1.47,1.47,0,0,1-.66,1.14c-.37.21-.66,0-.66-.38A1.44,1.44,0,0,1,216.84,128Z"/><path class="cls-8" d="M222,122.1c.36-.21.66,0,.66.38a1.47,1.47,0,0,1-.66,1.14c-.37.21-.66,0-.66-.38A1.44,1.44,0,0,1,222,122.1Z"/><path class="cls-8" d="M227.12,119.13c.36-.21.66,0,.66.38a1.47,1.47,0,0,1-.66,1.14c-.37.21-.66,0-.66-.38A1.44,1.44,0,0,1,227.12,119.13Z"/><path class="cls-8" d="M232.25,119.13c.37-.21.66,0,.66.38a1.44,1.44,0,0,1-.66,1.14c-.36.21-.66,0-.66-.38A1.47,1.47,0,0,1,232.25,119.13Z"/><path class="cls-8" d="M237.39,116.16c.37-.21.66,0,.66.38a1.46,1.46,0,0,1-.66,1.15c-.36.21-.66,0-.66-.38A1.48,1.48,0,0,1,237.39,116.16Z"/><path class="cls-8" d="M242.53,116.16c.36-.21.66,0,.66.38a1.48,1.48,0,0,1-.66,1.15c-.36.21-.66,0-.66-.38A1.48,1.48,0,0,1,242.53,116.16Z"/><path class="cls-8" d="M155.18,170.48l-.08,0a.16.16,0,0,1,0-.22l5.17-8.92a.14.14,0,0,1,.1-.07l5-1.08,5.1-10.68a.22.22,0,0,1,.1-.09.2.2,0,0,1,.13,0l5.08,2.94,5-1.46,5.1-4.43,5.13-5.92.07-.05,5.11-1.47,5.11-4.43a.2.2,0,0,1,.11,0h5l5.1-11.77a.15.15,0,0,1,.26,0l5,5.8,5-5.8,0,0,5.15-3,.08,0h5.1l5.08-2.93a.12.12,0,0,1,.08,0h5.14a.16.16,0,0,1,.16.15.16.16,0,0,1-.16.16h-5.1L232.35,120l-.08,0h-5.09l-5.1,2.94L217,128.89a.16.16,0,0,1-.24,0l-5-5.74-5,11.64a.17.17,0,0,1-.15.09h-5.08l-5.09,4.41-.06,0-5.09,1.47-5.12,5.9L181,151.16l-.06,0-5.14,1.49a.17.17,0,0,1-.12,0l-5-2.88-5.07,10.6a.17.17,0,0,1-.11.09l-5,1.07-5.14,8.86A.16.16,0,0,1,155.18,170.48Z"/><g class="cls-23"><path d="M155.18,169.56c.37-.21.66,0,.66.38a1.44,1.44,0,0,1-.66,1.14c-.36.21-.66,0-.66-.38A1.47,1.47,0,0,1,155.18,169.56Z"/><path d="M160.32,160.66c.37-.21.66,0,.66.38a1.44,1.44,0,0,1-.66,1.14c-.36.21-.66,0-.66-.38A1.47,1.47,0,0,1,160.32,160.66Z"/><ellipse cx="165.46" cy="160.31" rx="0.93" ry="0.54" transform="translate(-56.1 223.46) rotate(-60)"/><path d="M170.6,148.79c.36-.21.66,0,.66.38a1.47,1.47,0,0,1-.66,1.15c-.37.21-.66,0-.66-.38A1.46,1.46,0,0,1,170.6,148.79Z"/><path d="M175.74,151.76c.37-.21.66,0,.66.38a1.44,1.44,0,0,1-.66,1.14c-.36.22-.66,0-.66-.38A1.47,1.47,0,0,1,175.74,151.76Z"/><path d="M180.87,150.28c.37-.21.66,0,.66.38a1.44,1.44,0,0,1-.66,1.14c-.36.21-.66,0-.66-.38A1.47,1.47,0,0,1,180.87,150.28Z"/><path d="M186,145.83c.36-.21.66,0,.66.38a1.44,1.44,0,0,1-.66,1.14c-.36.21-.66,0-.66-.38A1.47,1.47,0,0,1,186,145.83Z"/><path d="M191.15,139.89c.36-.21.66,0,.66.39a1.47,1.47,0,0,1-.66,1.14c-.37.21-.66,0-.66-.38A1.46,1.46,0,0,1,191.15,139.89Z"/><path d="M196.29,138.41c.36-.21.66,0,.66.38a1.48,1.48,0,0,1-.66,1.15c-.37.21-.66,0-.66-.39A1.44,1.44,0,0,1,196.29,138.41Z"/><path d="M201.43,134c.36-.21.66,0,.66.38a1.48,1.48,0,0,1-.66,1.15c-.37.21-.67,0-.67-.39A1.45,1.45,0,0,1,201.43,134Z"/><path d="M206.56,134c.37-.21.66,0,.66.38a1.46,1.46,0,0,1-.66,1.15c-.36.21-.66,0-.66-.39A1.47,1.47,0,0,1,206.56,134Z"/><path d="M211.7,122.1c.37-.21.66,0,.66.38a1.44,1.44,0,0,1-.66,1.14c-.36.21-.66,0-.66-.38A1.47,1.47,0,0,1,211.7,122.1Z"/><path d="M216.84,128c.36-.21.66,0,.66.38a1.47,1.47,0,0,1-.66,1.14c-.37.21-.66,0-.66-.38A1.44,1.44,0,0,1,216.84,128Z"/><path d="M222,122.1c.36-.21.66,0,.66.38a1.47,1.47,0,0,1-.66,1.14c-.37.21-.66,0-.66-.38A1.44,1.44,0,0,1,222,122.1Z"/><path d="M227.12,119.13c.36-.21.66,0,.66.38a1.47,1.47,0,0,1-.66,1.14c-.37.21-.66,0-.66-.38A1.44,1.44,0,0,1,227.12,119.13Z"/><path d="M232.25,119.13c.37-.21.66,0,.66.38a1.44,1.44,0,0,1-.66,1.14c-.36.21-.66,0-.66-.38A1.47,1.47,0,0,1,232.25,119.13Z"/><path d="M237.39,116.16c.37-.21.66,0,.66.38a1.46,1.46,0,0,1-.66,1.15c-.36.21-.66,0-.66-.38A1.48,1.48,0,0,1,237.39,116.16Z"/><path d="M242.53,116.16c.36-.21.66,0,.66.38a1.48,1.48,0,0,1-.66,1.15c-.36.21-.66,0-.66-.38A1.48,1.48,0,0,1,242.53,116.16Z"/><path d="M155.18,170.48l-.08,0a.16.16,0,0,1,0-.22l5.17-8.92a.14.14,0,0,1,.1-.07l5-1.08,5.1-10.68a.22.22,0,0,1,.1-.09.2.2,0,0,1,.13,0l5.08,2.94,5-1.46,5.1-4.43,5.13-5.92.07-.05,5.11-1.47,5.11-4.43a.2.2,0,0,1,.11,0h5l5.1-11.77a.15.15,0,0,1,.26,0l5,5.8,5-5.8,0,0,5.15-3,.08,0h5.1l5.08-2.93a.12.12,0,0,1,.08,0h5.14a.16.16,0,0,1,.16.15.16.16,0,0,1-.16.16h-5.1L232.35,120l-.08,0h-5.09l-5.1,2.94L217,128.89a.16.16,0,0,1-.24,0l-5-5.74-5,11.64a.17.17,0,0,1-.15.09h-5.08l-5.09,4.41-.06,0-5.09,1.47-5.12,5.9L181,151.16l-.06,0-5.14,1.49a.17.17,0,0,1-.12,0l-5-2.88-5.07,10.6a.17.17,0,0,1-.11.09l-5,1.07-5.14,8.86A.16.16,0,0,1,155.18,170.48Z"/></g><path class="cls-7" d="M157.87,147.55l5-2.89c.25-.15.46,0,.46.23a1,1,0,0,1-.46.76l-5,2.89c-.25.14-.45,0-.45-.24A1,1,0,0,1,157.87,147.55Z"/><path class="cls-8" d="M155.18,148.79c.37-.21.66,0,.66.38a1.44,1.44,0,0,1-.66,1.15c-.36.21-.66,0-.66-.38A1.48,1.48,0,0,1,155.18,148.79Z"/><path class="cls-18" d="M155.18,148.79c.37-.21.66,0,.66.38a1.44,1.44,0,0,1-.66,1.15c-.36.21-.66,0-.66-.38A1.48,1.48,0,0,1,155.18,148.79Z"/><path class="cls-7" d="M157.87,150.51l5-2.89c.25-.15.46,0,.46.23a1,1,0,0,1-.46.76l-5,2.88c-.25.15-.45,0-.45-.23A1,1,0,0,1,157.87,150.51Z"/><path class="cls-8" d="M155.18,151.76c.37-.21.66,0,.66.38a1.44,1.44,0,0,1-.66,1.14c-.36.22-.66,0-.66-.38A1.47,1.47,0,0,1,155.18,151.76Z"/><path class="cls-8" d="M155.18,191.29a.16.16,0,0,1-.11,0,.16.16,0,0,1,0-.22l2.61-2.68,2.56-.33,2.58-3.34,2.59.36,2.51-2.27,2.57-1.54,2.61-3.62,2.6.81,2.5-2.23a.16.16,0,0,1,.21.23l-2.63,2.36-2.55-.8-2.55,3.51L168.11,183l-2.6,2.35L163,185l-2.55,3.3-2.58.33-2.53,2.6A.18.18,0,0,1,155.18,191.29Z"/><path class="cls-13" d="M156.2,182.61a.34.34,0,0,0,.06-.06l.07,0a.63.63,0,0,1,.39-.12.47.47,0,0,1,.31.11.68.68,0,0,1,.2.33,1.52,1.52,0,0,1,.08.51,2.46,2.46,0,0,1-.08.59,2.2,2.2,0,0,1-.2.56,1.92,1.92,0,0,1-.31.47,1.76,1.76,0,0,1-.39.34.69.69,0,0,1-.39.11.46.46,0,0,1-.3-.11.78.78,0,0,1-.21-.33,1.53,1.53,0,0,1-.07-.51c0-.11,0-.22,0-.32a2.82,2.82,0,0,1,.07-.31c0-.1.05-.2.09-.3l.09-.27.69-1.95a1,1,0,0,0,0-.1.27.27,0,0,1,.07-.08l.22-.13s0,0,0,0a.1.1,0,0,1,0,.08s0,0,0,0,0,0,0,0Zm-.48,1.65a1,1,0,0,0,0,.3.53.53,0,0,0,.12.21.3.3,0,0,0,.2.08.45.45,0,0,0,.25-.08.77.77,0,0,0,.26-.22,1.57,1.57,0,0,0,.2-.3,2.06,2.06,0,0,0,.12-.35,1.47,1.47,0,0,0,0-.36,1,1,0,0,0,0-.3.53.53,0,0,0-.12-.21.3.3,0,0,0-.2-.08.48.48,0,0,0-.26.08.74.74,0,0,0-.25.22,1.57,1.57,0,0,0-.2.3,2.06,2.06,0,0,0-.12.35A1.47,1.47,0,0,0,155.72,184.26Z"/><path class="cls-13" d="M158,183.33a.88.88,0,0,0,.05.15.22.22,0,0,0,.1.11.27.27,0,0,0,.18,0,.89.89,0,0,0,.29-.12,1.08,1.08,0,0,0,.4-.41,1,1,0,0,0,.13-.3,1.34,1.34,0,0,0,.05-.35.72.72,0,0,0-.05-.29A.24.24,0,0,0,159,182a.27.27,0,0,0-.18,0,.89.89,0,0,0-.23.1l-.31.18a.08.08,0,0,1-.08,0,.12.12,0,0,1,0-.09V182a.36.36,0,0,1,0-.1.76.76,0,0,0,0-.11l.68-1.51-1.08.62s-.05,0-.07,0a.12.12,0,0,1,0-.09v-.21a.31.31,0,0,1,0-.13.22.22,0,0,1,.07-.09l1.48-.85a.06.06,0,0,1,.07,0,.13.13,0,0,1,0,.1v.21a.52.52,0,0,1,0,.11.61.61,0,0,1-.05.12l-.66,1.49a.84.84,0,0,1,.34-.11.48.48,0,0,1,.27.08.64.64,0,0,1,.17.28,1.44,1.44,0,0,1,.06.45,2.12,2.12,0,0,1-.07.57,2.36,2.36,0,0,1-.2.51,2.25,2.25,0,0,1-.3.42,2,2,0,0,1-.36.3,1.25,1.25,0,0,1-.44.16.42.42,0,0,1-.3-.07.41.41,0,0,1-.17-.22,1.21,1.21,0,0,1-.07-.34.23.23,0,0,1,0-.11.11.11,0,0,1,.06-.07l.17-.1h.06A.16.16,0,0,1,158,183.33Z"/><path class="cls-13" d="M160.18,182a.94.94,0,0,0,.06.15.18.18,0,0,0,.1.11.33.33,0,0,0,.18,0,.78.78,0,0,0,.28-.12A.91.91,0,0,0,161,182a1.08,1.08,0,0,0,.18-.24,2.08,2.08,0,0,0,.13-.3,1.37,1.37,0,0,0,0-.36.78.78,0,0,0,0-.29.26.26,0,0,0-.12-.13.25.25,0,0,0-.19,0,1.07,1.07,0,0,0-.23.1l-.31.18a.06.06,0,0,1-.07,0,.12.12,0,0,1,0-.09v-.21a.52.52,0,0,1,0-.11l0-.1.68-1.51-1.09.62a0,0,0,0,1-.07,0,.12.12,0,0,1,0-.09v-.21a.31.31,0,0,1,0-.13A.35.35,0,0,1,160,179l1.49-.85a0,0,0,0,1,.07,0,.13.13,0,0,1,0,.1v.2a.5.5,0,0,1,0,.12.61.61,0,0,1-.05.12l-.67,1.49a.88.88,0,0,1,.35-.11.43.43,0,0,1,.27.08.6.6,0,0,1,.17.27,1.56,1.56,0,0,1,.06.46,2.17,2.17,0,0,1-.07.57,2.36,2.36,0,0,1-.21.51,2.09,2.09,0,0,1-.29.42,1.62,1.62,0,0,1-.37.29,1,1,0,0,1-.43.16.42.42,0,0,1-.3-.06.47.47,0,0,1-.18-.23.88.88,0,0,1-.06-.33.43.43,0,0,1,0-.11.22.22,0,0,1,.06-.07l.18-.1a0,0,0,0,1,.06,0A.09.09,0,0,1,160.18,182Z"/><path class="cls-7" d="M155.65,193.33l22.2-12.87c.25-.14.45,0,.45.23a1,1,0,0,1-.45.76l-22.2,12.87c-.25.14-.46,0-.46-.23A1,1,0,0,1,155.65,193.33Z"/><path class="cls-7" d="M155.65,178.49l5-2.89c.25-.14.46,0,.46.23a1,1,0,0,1-.46.76l-5,2.89c-.25.14-.46,0-.46-.23A1,1,0,0,1,155.65,178.49Z"/><path class="cls-8" d="M155.18,209.07a.15.15,0,0,1-.11,0,.17.17,0,0,1,0-.23l2.61-2.68,2.57-.32,2.6-2.27,2.5-.68,2.61-5.2,2.61,1.28,2.52-2.22h0l2.5-.47,2.53-4.37a.15.15,0,0,1,.21-.06.16.16,0,0,1,.06.22l-2.6,4.49-2.6.5-2.62,2.3-2.52-1.23-2.53,5-2.6.71-2.58,2.28-2.56.32L155.3,209A.18.18,0,0,1,155.18,209.07Z"/><g class="cls-23"><path d="M155.18,209.07a.15.15,0,0,1-.11,0,.17.17,0,0,1,0-.23l2.61-2.68,2.57-.32,2.6-2.27,2.5-.68,2.61-5.2,2.61,1.28,2.52-2.22h0l2.5-.47,2.53-4.37a.15.15,0,0,1,.21-.06.16.16,0,0,1,.06.22l-2.6,4.49-2.6.5-2.62,2.3-2.52-1.23-2.53,5-2.6.71-2.58,2.28-2.56.32L155.3,209A.18.18,0,0,1,155.18,209.07Z"/></g><path class="cls-13" d="M156.5,202.77a.31.31,0,0,1,0,.13.24.24,0,0,1-.08.09l-.15.08s-.05,0-.07,0a.12.12,0,0,1,0-.09v-3.19l-.61,1.06a.13.13,0,0,1-.08.08,0,0,0,0,1-.06,0l-.09-.13a.11.11,0,0,1,0-.1.22.22,0,0,1,0-.13l.8-1.41a.28.28,0,0,1,.06-.08l.06,0,.15-.09a.08.08,0,0,1,.08,0,.12.12,0,0,1,0,.09Z"/><path class="cls-13" d="M158.14,199.85a3.37,3.37,0,0,0,.17-.42,1.55,1.55,0,0,0,.05-.45.74.74,0,0,0-.11-.45c-.08-.09-.2-.09-.37,0a.67.67,0,0,0-.22.19.78.78,0,0,0-.16.24c0,.1-.07.19-.1.29l-.06.31a.53.53,0,0,1,0,.12.17.17,0,0,1-.06.06l-.18.1s0,0,0,0a.08.08,0,0,1,0-.07,2.14,2.14,0,0,1,.07-.48,2.19,2.19,0,0,1,.17-.49,2.32,2.32,0,0,1,.27-.46,1.31,1.31,0,0,1,.38-.33.64.64,0,0,1,.36-.11.37.37,0,0,1,.27.11.71.71,0,0,1,.16.3,2,2,0,0,1,.05.45c0,.13,0,.24,0,.35a1.8,1.8,0,0,1-.06.32c0,.11-.07.22-.11.33a3.7,3.7,0,0,1-.17.35l-.83,1.69,1.15-.66a0,0,0,0,1,.07,0,.13.13,0,0,1,0,.1v.2a.28.28,0,0,1,0,.13.35.35,0,0,1-.07.09l-1.62.93a.06.06,0,0,1-.08,0,.12.12,0,0,1,0-.09v-.21a.5.5,0,0,1,0-.12L157,202Z"/><path class="cls-13" d="M161.11,197.75c0,.17,0,.33,0,.49s0,.31,0,.49a3.68,3.68,0,0,1-.06.66,3.62,3.62,0,0,1-.17.61,1.9,1.9,0,0,1-.3.5,1.39,1.39,0,0,1-.43.37.7.7,0,0,1-.42.13.42.42,0,0,1-.3-.17,1,1,0,0,1-.17-.4,2.68,2.68,0,0,1-.06-.59c0-.18,0-.34,0-.49s0-.32,0-.49a3.71,3.71,0,0,1,.06-.67,2.63,2.63,0,0,1,.17-.6,2.14,2.14,0,0,1,.3-.51,1.34,1.34,0,0,1,.42-.37.75.75,0,0,1,.43-.13.46.46,0,0,1,.3.17,1.12,1.12,0,0,1,.17.41A2.61,2.61,0,0,1,161.11,197.75Zm-1.56,1.88a1.19,1.19,0,0,0,.16.72c.1.11.25.11.44,0a1,1,0,0,0,.45-.52,2.46,2.46,0,0,0,.16-.9v-1a1.26,1.26,0,0,0-.16-.72c-.1-.11-.25-.12-.45,0a1,1,0,0,0-.44.52,2.27,2.27,0,0,0-.16.9c0,.18,0,.34,0,.49S159.55,199.46,159.55,199.63Z"/><path class="cls-7" d="M155.65,211.11l22.2-12.86c.25-.15.45,0,.45.23a1,1,0,0,1-.45.76l-22.2,12.86c-.25.15-.46,0-.46-.23A1,1,0,0,1,155.65,211.11Z"/><path class="cls-7" d="M155.65,196.27l5-2.88c.25-.15.46,0,.46.23a1,1,0,0,1-.46.75l-5,2.89c-.25.15-.46,0-.46-.23A1,1,0,0,1,155.65,196.27Z"/><path class="cls-8" d="M186,173.45a.14.14,0,0,1-.12-.06.15.15,0,0,1,0-.22l2.57-2,2.59-3,2.63-.38,2.5-.56,2.59-3.06,2.56.45,2.56-4.06,2.6,0,2.52-2.25a.16.16,0,0,1,.21.24l-2.61,2.33-2.55,0L201.5,165l-2.58-.45-2.55,3-2.62.59-2.52.37-2.53,2.89-2.59,2.07A.17.17,0,0,1,186,173.45Z"/><path class="cls-13" d="M187,164.78s0,0,.06-.06l.07-.05a.79.79,0,0,1,.39-.12.5.5,0,0,1,.31.12.73.73,0,0,1,.2.32,1.6,1.6,0,0,1,.08.51,2.33,2.33,0,0,1-.08.59,2.48,2.48,0,0,1-.2.56,2.33,2.33,0,0,1-.31.48,1.49,1.49,0,0,1-.39.33.79.79,0,0,1-.39.12.5.5,0,0,1-.31-.12.81.81,0,0,1-.2-.33,1.51,1.51,0,0,1-.07-.5c0-.11,0-.22,0-.33a2.82,2.82,0,0,1,.07-.31,1.4,1.4,0,0,1,.09-.29l.09-.28.69-1.95,0-.09a.16.16,0,0,1,.07-.09l.22-.12h.05a.11.11,0,0,1,0,.08v.05l0,0Zm-.48,1.64a1,1,0,0,0,0,.31.56.56,0,0,0,.12.2.34.34,0,0,0,.19.09.56.56,0,0,0,.26-.08,1.09,1.09,0,0,0,.26-.22,1.23,1.23,0,0,0,.19-.31,1.48,1.48,0,0,0,.13-.35,2.09,2.09,0,0,0,0-.35,1.37,1.37,0,0,0,0-.31.46.46,0,0,0-.13-.2.31.31,0,0,0-.19-.09.59.59,0,0,0-.26.08,1.32,1.32,0,0,0-.26.22,1.61,1.61,0,0,0-.19.31,1.8,1.8,0,0,0-.12.35A1.45,1.45,0,0,0,186.55,166.42Z"/><path class="cls-13" d="M189.63,163.85a2.31,2.31,0,0,0,.17-.42,1.53,1.53,0,0,0,.06-.45.67.67,0,0,0-.12-.45c-.08-.09-.2-.09-.37,0a.79.79,0,0,0-.22.18,2.13,2.13,0,0,0-.16.25,1.4,1.4,0,0,0-.09.29,1.59,1.59,0,0,0-.06.3.34.34,0,0,1,0,.12.14.14,0,0,1-.06.07l-.17.1s0,0-.06,0,0,0,0-.08a2.09,2.09,0,0,1,.06-.47,3.28,3.28,0,0,1,.17-.5,2.6,2.6,0,0,1,.28-.45,1.28,1.28,0,0,1,.37-.33.76.76,0,0,1,.37-.12.42.42,0,0,1,.26.12.71.71,0,0,1,.16.3,1.55,1.55,0,0,1,.05.45c0,.12,0,.24,0,.34s0,.22-.07.33a1.82,1.82,0,0,1-.11.33c0,.11-.1.22-.16.35l-.84,1.69,1.15-.66s.05,0,.07,0a.12.12,0,0,1,0,.09v.21a.31.31,0,0,1,0,.13.22.22,0,0,1-.07.09l-1.62.93s-.05,0-.07,0a.13.13,0,0,1,0-.1v-.2a.27.27,0,0,1,0-.13l.06-.14Z"/><path class="cls-13" d="M192.19,160.45s.05,0,.07,0a.13.13,0,0,1,0,.1v.2a.49.49,0,0,1,0,.12l0,.14-.84,3.8,0,.12a.16.16,0,0,1-.08.08l-.17.1h-.06a.12.12,0,0,1,0-.09v0a.43.43,0,0,0,0-.05l.84-3.81-1.23.71s0,0-.07,0a.13.13,0,0,1,0-.1v-.2a.28.28,0,0,1,0-.13.22.22,0,0,1,.07-.09Z"/><path class="cls-7" d="M186.48,175.49l22.2-12.86c.25-.15.45,0,.45.23a1,1,0,0,1-.45.76l-22.2,12.86c-.26.15-.46,0-.46-.23A1,1,0,0,1,186.48,175.49Z"/><path class="cls-7" d="M186.48,160.65l5-2.88c.25-.15.46-.05.46.23a1,1,0,0,1-.46.76l-5,2.88c-.26.15-.46,0-.46-.23A1,1,0,0,1,186.48,160.65Z"/><path class="cls-8" d="M186,191.24a.11.11,0,0,1-.08,0,.14.14,0,0,1-.05-.21l2.62-4.31,2.64.49,2.49-.68,2.57-3.14,2.55-.64,2.6-4.63,2.65.77,2.5-.47,2.53-2.25a.15.15,0,0,1,.22,0,.16.16,0,0,1,0,.22l-2.6,2.31h0l-2.61.5-2.49-.72L199,183l-2.58.65-2.57,3.14h-.05l-2.6.71h0l-2.46-.45-2.51,4.12A.17.17,0,0,1,186,191.24Z"/><g class="cls-23"><path d="M186,191.24a.11.11,0,0,1-.08,0,.14.14,0,0,1-.05-.21l2.62-4.31,2.64.49,2.49-.68,2.57-3.14,2.55-.64,2.6-4.63,2.65.77,2.5-.47,2.53-2.25a.15.15,0,0,1,.22,0,.16.16,0,0,1,0,.22l-2.6,2.31h0l-2.61.5-2.49-.72L199,183l-2.58.65-2.57,3.14h-.05l-2.6.71h0l-2.46-.45-2.51,4.12A.17.17,0,0,1,186,191.24Z"/></g><path class="cls-13" d="M187.2,183.77a.1.1,0,0,1,0,0l-.05,0a.86.86,0,0,1-.35.12.53.53,0,0,1-.3-.09.66.66,0,0,1-.21-.31,1.38,1.38,0,0,1-.09-.54,2.32,2.32,0,0,1,.08-.58,3,3,0,0,1,.2-.55,2,2,0,0,1,.31-.46,1.34,1.34,0,0,1,.36-.32.79.79,0,0,1,.39-.12.41.41,0,0,1,.3.12.76.76,0,0,1,.19.32,1.85,1.85,0,0,1,.06.5,1.71,1.71,0,0,1,0,.31c0,.11,0,.22-.07.33s-.07.22-.1.33-.07.2-.1.28l-.68,1.95a.3.3,0,0,0,0,.1.2.2,0,0,1-.08.08l-.21.13s0,0-.06,0a.15.15,0,0,1,0-.08.09.09,0,0,1,0,0,0,0,0,0,1,0,0Zm.48-1.63a1,1,0,0,0,0-.31.48.48,0,0,0-.12-.2.25.25,0,0,0-.19-.07.55.55,0,0,0-.23.07.79.79,0,0,0-.24.21,1.12,1.12,0,0,0-.18.28,1,1,0,0,0-.12.34,1.49,1.49,0,0,0-.05.36.91.91,0,0,0,.05.31.34.34,0,0,0,.12.2.29.29,0,0,0,.18.07.52.52,0,0,0,.24-.08.85.85,0,0,0,.23-.2,1.07,1.07,0,0,0,.19-.28,2,2,0,0,0,.12-.34A1.47,1.47,0,0,0,187.68,182.14Z"/><path class="cls-13" d="M188.66,183.34a.75.75,0,0,0,.05.16.27.27,0,0,0,.11.1.3.3,0,0,0,.17,0,.81.81,0,0,0,.29-.12,1.18,1.18,0,0,0,.22-.17,1,1,0,0,0,.19-.25,1.34,1.34,0,0,0,.12-.3,1,1,0,0,0,.05-.35.78.78,0,0,0,0-.29.23.23,0,0,0-.13-.14.35.35,0,0,0-.18,0,.89.89,0,0,0-.23.1l-.31.18s-.05,0-.07,0a.13.13,0,0,1,0-.1V182a.43.43,0,0,1,0-.11,1,1,0,0,1,0-.1l.68-1.52-1.09.63a.06.06,0,0,1-.07,0,.12.12,0,0,1,0-.09v-.21a.27.27,0,0,1,0-.12.17.17,0,0,1,.07-.09l1.48-.86a.08.08,0,0,1,.08,0,.12.12,0,0,1,0,.09v.21a.52.52,0,0,1,0,.11L190,180l-.67,1.49a.85.85,0,0,1,.35-.1.34.34,0,0,1,.26.08.61.61,0,0,1,.18.27,1.44,1.44,0,0,1,.06.45,2.4,2.4,0,0,1-.28,1.09,2,2,0,0,1-.29.41,1.44,1.44,0,0,1-.37.3,1,1,0,0,1-.43.16.48.48,0,0,1-.3-.06.52.52,0,0,1-.18-.23.9.9,0,0,1-.06-.34.36.36,0,0,1,0-.1.14.14,0,0,1,.06-.07l.17-.1s.05,0,.07,0A.06.06,0,0,1,188.66,183.34Z"/><path class="cls-7" d="M186.48,193.28l22.2-12.87c.25-.14.45,0,.45.23a1,1,0,0,1-.45.76l-22.2,12.87c-.26.14-.46,0-.46-.24A.94.94,0,0,1,186.48,193.28Z"/><path class="cls-7" d="M186.48,178.44l5-2.89c.25-.15.46,0,.46.23a1,1,0,0,1-.46.76l-5,2.89c-.26.14-.46,0-.46-.24A.94.94,0,0,1,186.48,178.44Z"/><path class="cls-8" d="M219.41,144.58a2.9,2.9,0,0,1,2.93-.21l-2.93,7.89Z"/><path class="cls-8" d="M216.48,147.75a8.71,8.71,0,0,1,2.93-3.17v7.68Z"/><path class="cls-8" d="M214.67,152.63a15.43,15.43,0,0,1,1.81-4.88l2.93,4.51Z"/><path class="cls-18" d="M216.48,147.75a15.43,15.43,0,0,0-1.81,4.88l4.74-.37v-7.68A8.71,8.71,0,0,0,216.48,147.75Z"/><path class="cls-8" d="M222.34,144.37a4.08,4.08,0,0,1,1.81,2.78l-4.74,5.11Z"/><path class="cls-8" d="M214.67,157.37a9.44,9.44,0,0,1-.25-2.23,13.43,13.43,0,0,1,.25-2.51l4.74-.37Z"/><path class="cls-8" d="M224.15,151.9a15.52,15.52,0,0,1-1.81,4.88l-2.93-4.52Z"/><path class="cls-8" d="M219.41,159.94a2.93,2.93,0,0,1-2.93.22l2.93-7.9Z"/><path class="cls-8" d="M214.67,157.37l4.74-5.11-2.93,7.9A4.12,4.12,0,0,1,214.67,157.37Z"/><path class="cls-8" d="M224.15,147.15a9.44,9.44,0,0,1,.25,2.23,13.54,13.54,0,0,1-.25,2.52l-4.74.36Z"/><path class="cls-8" d="M222.34,156.78a8.85,8.85,0,0,1-2.93,3.16v-7.68Z"/><path class="cls-13" d="M216.92,163.85l5-2.88c.25-.15.45,0,.45.23a1,1,0,0,1-.45.76l-5,2.88c-.25.15-.46,0-.46-.23A1,1,0,0,1,216.92,163.85Z"/><path class="cls-7" d="M215.82,167.46,223,163.3c.26-.14.46,0,.46.23a1,1,0,0,1-.46.76l-7.17,4.16c-.25.15-.45,0-.45-.23A1,1,0,0,1,215.82,167.46Z"/><path class="cls-7" d="M215.82,170.44l7.17-4.16c.26-.15.46,0,.46.23a1,1,0,0,1-.46.76l-7.17,4.16c-.25.14-.45,0-.45-.24A1,1,0,0,1,215.82,170.44Z"/><path class="cls-7" d="M215.82,173.41l7.17-4.16c.26-.14.46,0,.46.23a1,1,0,0,1-.46.76l-7.17,4.16c-.25.14-.45,0-.45-.23A1,1,0,0,1,215.82,173.41Z"/><path class="cls-8" d="M237.39,134.16a2.93,2.93,0,0,1,2.93-.22l-2.93,7.9Z"/><path class="cls-8" d="M234.46,137.33a8.8,8.8,0,0,1,2.93-3.17v7.68Z"/><path class="cls-8" d="M232.65,142.21a15.34,15.34,0,0,1,1.81-4.88l2.93,4.51Z"/><path class="cls-8" d="M240.32,133.94a4.12,4.12,0,0,1,1.81,2.79l-4.74,5.11Z"/><path class="cls-8" d="M232.65,147a9.44,9.44,0,0,1-.25-2.23,13.35,13.35,0,0,1,.25-2.51l4.74-.37Z"/><path class="cls-8" d="M242.13,141.47a15.34,15.34,0,0,1-1.81,4.88l-2.93-4.51Z"/><path class="cls-8" d="M237.39,149.52a2.93,2.93,0,0,1-2.93.22l2.93-7.9Z"/><path class="cls-8" d="M232.65,147l4.74-5.11-2.93,7.9A4.12,4.12,0,0,1,232.65,147Z"/><path class="cls-18" d="M234.46,137.33a15.34,15.34,0,0,0-1.81,4.88,13.35,13.35,0,0,0-.25,2.51,9.44,9.44,0,0,0,.25,2.23,4.12,4.12,0,0,0,1.81,2.79l2.93-7.9v-7.68A8.8,8.8,0,0,0,234.46,137.33Z"/><path class="cls-8" d="M242.13,136.73a9.44,9.44,0,0,1,.25,2.23,13.35,13.35,0,0,1-.25,2.51l-4.74.37Z"/><path class="cls-8" d="M240.32,146.35a8.71,8.71,0,0,1-2.93,3.17v-7.68Z"/><path class="cls-13" d="M234.9,153.47l5-2.89c.25-.14.46,0,.46.24a1,1,0,0,1-.46.75l-5,2.89c-.25.15-.45,0-.45-.23A1,1,0,0,1,234.9,153.47Z"/><path class="cls-7" d="M233.81,157.08l7.17-4.16c.25-.14.45,0,.45.23a1,1,0,0,1-.45.76l-7.17,4.16c-.25.14-.46,0-.46-.23A1,1,0,0,1,233.81,157.08Z"/><path class="cls-7" d="M233.81,160.05l7.17-4.16c.25-.14.45,0,.45.24a1,1,0,0,1-.45.75L233.81,161c-.25.15-.46,0-.46-.23A1,1,0,0,1,233.81,160.05Z"/><path class="cls-7" d="M233.81,163l7.17-4.16c.25-.15.45,0,.45.23a1,1,0,0,1-.45.76L233.81,164c-.25.14-.46,0-.46-.24A1,1,0,0,1,233.81,163Z"/></g><g id="Glass"><path class="cls-8" d="M237.3,237.11a8.44,8.44,0,0,0-3.6-6.74A2.68,2.68,0,0,0,231,230h0c-4.23,2.12-34,21.19-35.86,22.13h0a1.35,1.35,0,0,0-.6,1.22,4.26,4.26,0,0,0,1.81,3.4,1.34,1.34,0,0,0,1.36.18h0c3-1.66,32.35-14.17,38.35-17.39h0A2.72,2.72,0,0,0,237.3,237.11Z"/><path class="cls-24" d="M236.13,233a7.73,7.73,0,0,0-2.43-2.63A2.68,2.68,0,0,0,231,230c-.14.07-.18.1-.08,0-3.87,2-26,16.1-33.44,20.68l-.05,0-.3.19-.09.06-.17.1-.2.12h0c-.79.48-1.32.79-1.52.9h0a.7.7,0,0,0-.17.13,1.51,1.51,0,0,0-.43,1.09,3.1,3.1,0,0,0,0,.43l0,.17c0,.08,0,.17,0,.26a1.46,1.46,0,0,0,.05.2c0,.09.05.17.08.25a1.34,1.34,0,0,1,.07.18v0Z"/><path class="cls-8" d="M196.34,256.76a4.24,4.24,0,0,1-1.8-3.38c0-1.22.91-1.69,2-1a4.23,4.23,0,0,1,1.81,3.38C198.26,256.94,197.38,257.41,196.34,256.76Z"/><path class="cls-11" d="M187.46,257.58a3.28,3.28,0,0,0,1.38,2.6,1,1,0,0,0,1,.14h0l7.19-3.83h0a1,1,0,0,0,.46-.93,3.26,3.26,0,0,0-1.39-2.6,1,1,0,0,0-1-.14h0l-7.2,3.83h0A1,1,0,0,0,187.46,257.58Z"/><path class="cls-12" d="M187.93,256.64a1,1,0,0,0-.47.94,2.81,2.81,0,0,0,.22,1.11l9.27-4.95a2.73,2.73,0,0,0-.8-.79,1,1,0,0,0-1-.14l-7.2,3.83Z"/><path class="cls-8" d="M196.68,264c0-4.6-3-9.21-9.13-12.73-12.18-7-31.93-7-44.12,0-6.09,3.52-9.13,8.13-9.13,12.73h0v8.49c0,4.61,3,9.22,9.13,12.74,12.19,7,31.94,7,44.12,0,6.09-3.52,9.13-8.13,9.13-12.74V264Zm-51.74-10.12c5.44-3.14,12.74-4.87,20.55-4.87s15.11,1.73,20.55,4.87c4.92,2.84,7.63,6.44,7.63,10.13S191,271.25,186,274.09c-5.44,3.14-12.74,4.87-20.55,4.87s-15.11-1.73-20.55-4.87c-4.92-2.84-7.63-6.44-7.63-10.12S140,256.68,144.94,253.84Z"/><path class="cls-25" d="M143.43,276.7c12.18,7,31.93,7,44.12,0s12.18-18.44,0-25.47-31.94-7-44.12,0S131.25,269.67,143.43,276.7ZM137.31,264c0-3.69,2.71-7.29,7.63-10.13,5.44-3.14,12.74-4.87,20.55-4.87s15.11,1.73,20.55,4.87c4.92,2.84,7.63,6.44,7.63,10.13S191,271.25,186,274.09c-5.44,3.14-12.74,4.87-20.55,4.87s-15.11-1.73-20.55-4.87C140,271.25,137.31,267.65,137.31,264Z"/><path class="cls-8" d="M137.31,264a8.38,8.38,0,0,0,1.22,4.25,16.89,16.89,0,0,1,6.41-5.87c5.44-3.15,12.74-4.88,20.55-4.88s15.11,1.73,20.55,4.88a17.15,17.15,0,0,1,6.42,5.87,8.47,8.47,0,0,0,1.21-4.25c0-3.68-2.71-7.28-7.63-10.12C180.6,250.7,173.3,249,165.49,249s-15.11,1.73-20.55,4.87C140,256.68,137.31,260.28,137.31,264Z"/><path class="cls-24" d="M137.31,264a8.38,8.38,0,0,0,1.22,4.25,16.89,16.89,0,0,1,6.41-5.87c5.44-3.15,12.74-4.88,20.55-4.88s15.11,1.73,20.55,4.88a17.15,17.15,0,0,1,6.42,5.87,8.47,8.47,0,0,0,1.21-4.25c0-3.68-2.71-7.28-7.63-10.12C180.6,250.7,173.3,249,165.49,249s-15.11,1.73-20.55,4.87C140,256.68,137.31,260.28,137.31,264Z"/><path class="cls-26" d="M144.94,257.69c5.44-3.14,12.74-4.87,20.55-4.87s15.11,1.73,20.55,4.87c4.06,2.34,6.61,5.2,7.37,8.2-.76,3-3.31,5.85-7.37,8.2-5.44,3.14-12.74,4.87-20.55,4.87s-15.11-1.73-20.55-4.87c-4.06-2.35-6.61-5.2-7.38-8.2C138.33,262.89,140.88,260,144.94,257.69Z"/><path class="cls-24" d="M158.14,281.47V290a40.84,40.84,0,0,1-14.7-4.77c-6.1-3.52-9.15-8.13-9.15-12.74V264a10.7,10.7,0,0,1,.38-2.78h0c-1.47,5.49,1.45,11.29,8.77,15.52A40.84,40.84,0,0,0,158.14,281.47Z"/></g><g id="Character"><path class="cls-12" d="M306.82,229.63c.36.15.44.87.47,2.28,0,1.07.2,2.93-1.06,3.28s-3.08.11-3.86-.91c-1-1.28-1.62-2.4-3-4-1.21-1.35-2.52-2.62-3-4.5-.41-1.69,0-2.41,1.14-2.88,1.59-.64,4,1.62,5.26,2C303.84,225.25,306.45,229.49,306.82,229.63Z"/><path class="cls-27" d="M306.84,228.33l0,1.73a4.26,4.26,0,0,1-4.38,0c-.07-.17-.4-2.49-.4-2.49Z"/><path class="cls-12" d="M292.57,239.3s.46,1.51.7,2.84c.19,1.05.46,2.8.07,3.58s-1.82,1.26-4,1.19a13.06,13.06,0,0,0-5.25,1.7,13.65,13.65,0,0,1-6.57.89c-2-.27-4-1.46-4.28-2.29s.14-1.66,4.83-3.53c.05,0,6.51-2,8.82-4.39Z"/><path class="cls-27" d="M292.61,237.43s0,1.28,0,2-.91,1.81-3.15,1.68c-1.57-.09-2.67-.54-2.57-1.83l0-1.88Z"/><path class="cls-11" d="M308.49,205.38a47.65,47.65,0,0,0-1.84-9.07s.79-7.76,1.25-15.13c.5-8,1-12.06-.6-23.56,0,0-24.4-2.19-25.07,7s.28,32.68.49,36.73.83,7.65,1.52,14.23,2.65,21.82,2.65,21.82a6.06,6.06,0,0,0,5.72,0s2.23-18.38,2.14-23.05a39.69,39.69,0,0,0-1.54-10.23s.66-7.59,1.24-14.18,1.1-9.76,1.27-12.63l.56-.26s.31,11.4.52,15.46.77,7.94,1.77,15.49c.87,6.54,3.58,20.4,3.58,20.4,2.9,1.66,4.69-.1,4.69-.1S309.15,211.05,308.49,205.38Z"/><path class="cls-12" d="M295.72,177.34s6.3-2.94,9.49-5.64a20.67,20.67,0,0,1-6.84,5.75s-1.67,14.12-1.66,13.84l-.46-14Z"/><polygon class="cls-28" points="291.35 124.83 292.3 133.26 300.26 132.86 299.37 123.02 291.35 124.83"/><path class="cls-11" d="M303.26,128.06c3-.14,4.46.3,5.8,2.86s1.85,10.19,2.31,14.13.58,6.71-1,7.12a73.31,73.31,0,0,1-7.93.58Z"/><path class="cls-13" d="M308.26,132.42a6.1,6.1,0,0,0-6.43-4.36l-2,.33c-.35,1.42-4.24,2.31-7.95,1.43-1.12.3-4.8,1-5.73,1.3-2.67.88-3.77,3.51-4.18,12.21,0,0,.21,19.69.1,23.62a32.07,32.07,0,0,0,17.34,2.1c8-1.56,9-4.83,9-4.83l-1.19-9S309.23,137.76,308.26,132.42Z"/><path class="cls-11" d="M291.66,127.61l.06.53a11.92,11.92,0,0,0,4.89,0c2.58-.58,3.1-1.31,3.1-1.31l0-.6s.64-.24,1,.75.38,1.21.38,1.21.29,1.81-2.75,2.74a9.4,9.4,0,0,1-7.56-.83l-1.2.25s1-2.38,1.35-2.86a.78.78,0,0,1,.74-.41Z"/><polygon class="cls-13" points="267.37 118.57 251.59 126.81 259.43 148.25 274.15 140 267.37 118.57"/><polygon class="cls-29" points="266.64 120.67 253.41 127.58 260.34 146.01 272.7 139.09 266.64 120.67"/><path class="cls-14" d="M263.85,122.66l-.26-.65c-.14-.37-1.24-.15-2.46.48l-2.33,1.2c-1.22.63-2.09,1.43-1.95,1.8l.26.65Z"/><path class="cls-8" d="M263.59,120c-.08-.23-.56-.19-1.07.08l-.91.49s-.56-1.41-2.66-.43-1.62,2.62-1.62,2.62l-1,.53c-.54.3-.92.72-.85,1l.12.42,8.13-4.24Z"/><path class="cls-8" d="M262.72,121c-.76.37-1.06.55-.84,1.11s.48,1.09.48,1.09l-3.59,1.89s-.3-.82-.44-1.13-.39-.46-1-.16l-.21-.23,5.67-2.89Z"/><path class="cls-18" d="M262.72,121c-.76.37-1.06.55-.84,1.11s.48,1.09.48,1.09l-3.59,1.89s-.3-.82-.44-1.13-.39-.46-1-.16l-.21-.23,5.67-2.89Z"/><path class="cls-8" d="M264,122.7l-.25-.66c-.14-.36-1.25-.15-2.46.48L259,123.73c-1.22.62-2.09,1.43-1.95,1.79l.25.65Z"/><path class="cls-28" d="M286.18,131.12c-3.64.31-5.2,1-7.93,5.91-3,5.35-8.67,15-9.4,16.26a6.53,6.53,0,0,0-.33,5.85c.82,1.46,3.39,2.13,6.31-1.17,3.47-3.92,9.93-13.49,9.93-13.49S290.24,137.24,286.18,131.12Z"/><path class="cls-28" d="M270,160.26c-2.79-.34-9.31-9.18-11.17-12.07a20.61,20.61,0,0,0-5.65-6c-3-2.18-2.52-5.54-1.23-8.61.44-1.07,2-.37,2-.37l.53,1.46.93,2.52c.62.58,1,.77,1,.6.08-.33-.46-1.68-.45-3.1,0-1.7,1.21-.58,1.57,0a21.2,21.2,0,0,1,1.26,2.82c.59,1.52.35,3.07,1.07,4.11S270.33,152,270.33,152Z"/><path class="cls-11" d="M286.88,130.93a7.75,7.75,0,0,0-6.91,3c-2.06,2.67-10.28,17.18-10.28,17.18l-4.61-4.13a8,8,0,0,0-3.55,5,50.07,50.07,0,0,0,4.18,5.67c2,2.14,4.12,3.63,5.91,3s3.6-2.07,7.44-7.42,8-11.65,8-11.65S289.74,135.35,286.88,130.93Z"/><path class="cls-30" d="M285.74,114.51s-2,3-1.76,3.32a5.16,5.16,0,0,0,1.69.56Z"/><path class="cls-12" d="M286.67,116.45a2.37,2.37,0,1,1,2.37-2.37A2.38,2.38,0,0,1,286.67,116.45Zm0-4.21a1.85,1.85,0,1,0,1.84,1.84A1.85,1.85,0,0,0,286.67,112.24Z"/><path class="cls-28" d="M291.26,106.17c-4,.85-5.18,2.62-5.56,9-.4,6.67.28,8.77,1.16,9.67.59.6,3.88.71,5.54.26,2.08-.58,6.77-2.24,9-5.6,2.58-4,3.26-9.3.49-11.5C298,104.92,292.89,105.83,291.26,106.17Z"/><path class="cls-30" d="M291.4,125.29l-.19-1.23a7.9,7.9,0,0,1-4.12.94A10,10,0,0,0,291.4,125.29Z"/><polygon class="cls-12" points="284.53 113.59 291.67 114.51 291.39 115.02 284.53 114.13 284.53 113.59"/><path class="cls-12" d="M285,108.75a2.15,2.15,0,0,0,.91,0,1.43,1.43,0,0,0,.49,1.67,2,2,0,0,0,1.8.24,1.76,1.76,0,0,0-.19,1.25,2,2,0,0,0,2.08,1.5c0,.93,0,1.85,1,2.27,0,0,.64-2.47,2.71-2.16s2.38,3,1.06,4.61-2.53,1-2.55,1,.17.85.21,1a7.42,7.42,0,0,0,.53,1.35,6.48,6.48,0,0,0,1.89,2.21,4.64,4.64,0,0,0,3.77,1.05,4.08,4.08,0,0,0,2.75-2.22,2.41,2.41,0,0,1,.44-.8,2.8,2.8,0,0,1,1-.44,3,3,0,0,0,1.7-4.25,2.76,2.76,0,0,0,1.06-4.82,3.29,3.29,0,0,0,1.42-3.59,3.36,3.36,0,0,0-2.38-2.28c-.81-.23-.5-.36-.75-1.15a2.91,2.91,0,0,0-.93-1.4,3,3,0,0,0-2.77-.52,2.88,2.88,0,0,0-3.43-2.21c-.33.09-1,.4-1.14.72-.42-.42-.56-1-1.08-1.35a3.05,3.05,0,0,0-1.82-.6,3.13,3.13,0,0,0-2.67,1.56,3.77,3.77,0,0,0-2.8-1.18,3.08,3.08,0,0,0-2.56,1.56,2.62,2.62,0,0,0,.34,2.93,3,3,0,0,0-1.55,1.34,1.88,1.88,0,0,0,.22,2.1,1.61,1.61,0,0,0,.78.58A2.62,2.62,0,0,0,285,108.75Z"/><path class="cls-12" d="M291.11,117l.07-2.79a1.4,1.4,0,1,0-.07,2.79Z"/></g></g></g></svg>